<?xml version="1.0" encoding="UTF-8" standalone="no"?>
<!-- Created with Inkscape (http://www.inkscape.org/) -->

<svg
   xmlns:dc="http://purl.org/dc/elements/1.1/"
   xmlns:cc="http://creativecommons.org/ns#"
   xmlns:rdf="http://www.w3.org/1999/02/22-rdf-syntax-ns#"
   xmlns:svg="http://www.w3.org/2000/svg"
   xmlns="http://www.w3.org/2000/svg"
   xmlns:sodipodi="http://sodipodi.sourceforge.net/DTD/sodipodi-0.dtd"
   xmlns:inkscape="http://www.inkscape.org/namespaces/inkscape"
   width="744.09448819"
   height="1052.3622047"
   id="svg3537"
   version="1.1"
   inkscape:version="0.48.2 r9819"
   sodipodi:docname="New document 2">
  <defs
     id="defs3539" />
  <sodipodi:namedview
     id="base"
     pagecolor="#ffffff"
     bordercolor="#666666"
     borderopacity="1.0"
     inkscape:pageopacity="0.0"
     inkscape:pageshadow="2"
     inkscape:zoom="0.35"
     inkscape:cx="375"
     inkscape:cy="520"
     inkscape:document-units="px"
     inkscape:current-layer="layer1"
     showgrid="false"
     inkscape:window-width="1366"
     inkscape:window-height="706"
     inkscape:window-x="-8"
     inkscape:window-y="-8"
     inkscape:window-maximized="1" />
  <metadata
     id="metadata3542">
    <rdf:RDF>
      <cc:Work
         rdf:about="">
        <dc:format>image/svg+xml</dc:format>
        <dc:type
           rdf:resource="http://purl.org/dc/dcmitype/StillImage" />
        <dc:title></dc:title>
      </cc:Work>
    </rdf:RDF>
  </metadata>
  <g
     inkscape:label="Layer 1"
     inkscape:groupmode="layer"
     id="layer1">
    <path
       inkscape:connector-curvature="0"
       id="rect3117"
       d="m 47.407362,82.362183 638.306838,0 0,887.058817 -638.306838,0 z"
       style="fill:none;stroke:none" />
    <g
       id="text3109"
       style="font-size:158.77285767px;font-style:normal;font-weight:normal;line-height:89.99999762%;letter-spacing:0px;word-spacing:0px;fill:#ff2a2a;fill-opacity:1;stroke:none;font-family:Sans"
       transform="matrix(1.6427015,0,0,1.6427015,1671.3351,146.53662)">
      <path
         inkscape:connector-curvature="0"
         id="path3567"
         style="font-variant:normal;font-weight:600;font-stretch:normal;letter-spacing:12px;fill:#ff5555;font-family:a_AlternaBrk;-inkscape-font-specification:a_AlternaBrk Semi-Bold"
         d="m -886.43767,33.536071 -1.74433,1.429382 0,35.724862 9.68588,0 10.16073,-20.161556 -15.08362,-16.672894 z m -22.86042,-35.2451712 -3.17856,-0.159897 26.35878,2.38391867 0,13.01949053 7.7768,-2.383919 26.83363,10.480521 5.39773,30.322282 -8.57145,32.866098 -22.23052,6.512168 -13.17455,0.794639 3.96836,16.987839 -27.62826,0 0,-16.987839 -10.16073,-0.634742 -21.27599,-10.480521 -10.48052,-29.372591 8.73619,-27.62826 25.71919,-11.905057 7.62175,0 z m 0,35.5649652 0,0.474845 -10.64042,-1.269485 -14.12908,20.641247 13.33444,19.846607 10.64042,-4.288146 -1.42938,-15.083615 z" />
      <path
         inkscape:connector-curvature="0"
         id="path3569"
         style="font-variant:normal;font-weight:600;font-stretch:normal;letter-spacing:12px;fill:#ff5555;font-family:a_AlternaBrk;-inkscape-font-specification:a_AlternaBrk Semi-Bold"
         d="m -796.42248,70.690315 -0.1599,-1.589279 17.30764,0 1.90422,-28.737848 -10.48052,-26.673724 -5.71752,27.62826 z m 0.31495,39.218365 0.31979,-2.38391 -22.70537,1.42938 -2.85877,-22.225683 4.763,-27.62826 2.38391,-26.35393 7.46186,-17.627431 8.73135,-18.5771223 23.50001,0 10.16073,20.4813503 5.23783,15.878254 2.38392,28.103106 1.74433,26.358775 0,20.796301 -20.16155,3.6534 0,-21.750833 -18.73702,-3.813301 z" />
      <path
         inkscape:connector-curvature="0"
         id="path3571"
         style="font-variant:normal;font-weight:600;font-stretch:normal;letter-spacing:12px;fill:#ff2a2a;font-family:a_AlternaBrk;-inkscape-font-specification:a_AlternaBrk Semi-Bold"
         d="m -911.36221,253.59889 0,-1.11443 0,-20.32145 1.74433,-16.82795 -2.85877,-18.89692 3.33361,-16.82794 -1.74433,-20.3263 -10.48052,16.67289 -7.30196,20.64125 0,58.27034 -25.56414,-4.12825 -1.74433,-12.70454 0,-38.26384 8.2565,-27.30846 13.33444,-15.39857 15.71836,-14.13392 33.66073,-3.80846 -2.22402,20.7963 0,17.78733 -2.21917,19.05197 4.12825,17.46269 -3.17856,18.10227 1.58928,20.00166 z" />
      <path
         inkscape:connector-curvature="0"
         id="path3573"
         style="font-variant:normal;font-weight:600;font-stretch:normal;letter-spacing:12px;fill:#ff2a2a;font-family:a_AlternaBrk;-inkscape-font-specification:a_AlternaBrk Semi-Bold"
         d="m -836.42579,213.58588 -0.1599,-1.58928 17.30764,0 1.90422,-28.73784 -10.48052,-26.67373 -5.71753,27.62826 z m 0.31494,39.21837 0.3198,-2.38392 -22.70537,1.42939 -2.85877,-22.22568 4.76299,-27.62827 2.38392,-26.35393 7.46186,-17.62743 8.73135,-18.57712 23.50001,0 10.16072,20.48135 5.23784,15.87826 2.38392,28.1031 1.74433,26.35878 0,20.7963 -20.16155,3.6534 0,-21.75084 -18.73702,-3.8133 z" />
      <path
         inkscape:connector-curvature="0"
         id="path3575"
         style="font-variant:normal;font-weight:600;font-stretch:normal;letter-spacing:12px;fill:#ff2a2a;font-family:a_AlternaBrk;-inkscape-font-specification:a_AlternaBrk Semi-Bold"
         d="m -766.31051,253.59889 0.47969,-3.01866 0.94969,-15.24351 -1.90423,-21.43104 -1.26948,-18.26218 2.85876,-18.25732 -1.11443,-17.78249 0,-20.64124 25.56414,1.42938 -2.85877,19.84661 3.33361,21.59093 16.83279,-2.06412 0,-40.32796 24.92455,0 0,22.54548 -1.58928,14.44887 -1.74433,22.54547 0,33.50084 3.96835,22.23053 -24.2898,0 0,-21.11609 -1.42938,-14.76867 0,-17.78248 -20.80115,0 4.12825,16.35794 -3.17371,16.50816 1.58928,18.41722 z" />
      <path
         inkscape:connector-curvature="0"
         id="path3577"
         style="font-variant:normal;font-weight:600;font-stretch:normal;letter-spacing:12px;font-family:a_AlternaBrk;-inkscape-font-specification:a_AlternaBrk Semi-Bold"
         d="m -886.91251,329.01309 0,-1.10959 -23.81496,-2.06412 1.10959,-12.38475 -12.22486,-10.95537 -6.19237,11.11526 -1.74433,15.55846 0,35.24518 10.63557,10.32062 9.68588,-7.30196 -1.90422,-23.18022 22.70537,3.96835 0,10.64042 -6.67207,28.41805 -23.18022,11.75001 -26.35393,-8.4164 -6.98701,-33.18104 -2.22402,-17.46754 0,-20.48135 5.39773,-28.73784 30.16723,-9.20619 23.02032,7.61691 9.21104,30.64692 z" />
      <path
         inkscape:connector-curvature="0"
         id="path3579"
         style="font-variant:normal;font-weight:600;font-stretch:normal;letter-spacing:12px;font-family:a_AlternaBrk;-inkscape-font-specification:a_AlternaBrk Semi-Bold"
         d="m -848.2824,305.35803 -0.1599,-2.85877 -16.03815,2.37907 -1.26948,-22.54547 20.96104,0 19.36691,3.9732 17.30764,-4.12825 -1.74433,24.2898 -16.513,-2.69886 0,17.30763 3.64856,21.91074 0,32.23135 -1.90423,20.48135 -24.4497,0 -1.74917,-18.57712 4.12825,-19.37176 -3.17372,-18.57713 1.58928,-16.82794 z" />
      <path
         inkscape:connector-curvature="0"
         id="path3581"
         style="font-variant:normal;font-weight:600;font-stretch:normal;letter-spacing:12px;font-family:a_AlternaBrk;-inkscape-font-specification:a_AlternaBrk Semi-Bold"
         d="m -784.30135,354.10238 0.31495,2.21917 23.65991,-1.26948 -1.58928,9.05114 10.79547,11.27031 6.66722,-10.00083 0,-17.78248 -19.05197,-3.33361 0,-17.30764 23.34012,-2.06412 -4.28815,-11.27032 -9.68104,-8.57629 -7.94155,7.94155 1.90423,3.33361 -25.71919,0 7.46186,-24.76949 26.03898,-9.36609 24.13476,7.46186 12.06495,28.41805 -2.22402,22.07063 0,16.98784 -8.57145,31.43672 -25.08444,6.82712 -26.83362,-8.09661 -8.5763,-27.46836 z" />
      <path
         inkscape:connector-curvature="0"
         id="path3583"
         style="font-variant:normal;font-weight:600;font-stretch:normal;letter-spacing:12px;font-family:a_AlternaBrk;-inkscape-font-specification:a_AlternaBrk Semi-Bold"
         d="m -666.14429,345.52609 -0.31495,-0.79464 9.04629,0 9.21104,-20.32146 -10.16073,-20.64124 -9.36609,-0.47485 1.58444,21.11609 z m -21.43104,47.94971 -1.90908,-0.1599 1.11444,-17.14774 -2.85877,-19.05197 3.33361,-17.14774 -1.74433,-20.64124 0,-36.99435 32.22651,0 21.12094,7.78165 10.00083,8.73135 2.06412,27.46836 -7.46186,27.78816 -23.18021,9.68103 -9.68588,2.69887 0,30.80197 z" />
    </g>
    <g
       id="text3113"
       style="font-size:61.06625366px;font-style:normal;font-weight:normal;line-height:125%;letter-spacing:0px;word-spacing:0px;fill:#333333;fill-opacity:1;stroke:none;font-family:Sans"
       transform="matrix(1.6427015,0,0,1.6427015,1671.3351,146.53662)">
      <path
         inkscape:connector-curvature="0"
         id="path3586"
         d="m -944.60215,461.30228 0,-27.49174 -4.74099,0 0,-4.17446 4.74099,0 0,-3.36937 c -10e-6,-2.12695 0.18884,-3.70727 0.56653,-4.74099 0.51683,-1.39144 1.42626,-2.51953 2.7283,-3.38428 1.30202,-0.86467 3.12586,-1.29702 5.47152,-1.29707 1.51073,5e-5 3.18051,0.17895 5.00934,0.53672 l -0.80508,4.68135 c -1.1132,-0.19875 -2.16675,-0.29814 -3.16065,-0.29818 -1.63004,4e-5 -2.78298,0.34791 -3.45883,1.04362 -0.67588,0.69578 -1.01381,1.9978 -1.0138,3.90609 l 0,2.92211 6.17223,0 0,4.17446 -6.17223,0 0,27.49174 z" />
      <path
         inkscape:connector-curvature="0"
         id="path3588"
         d="m -908.28443,457.39618 c -1.98785,1.68966 -3.90114,2.88236 -5.73987,3.5781 -1.83876,0.69575 -3.81168,1.04362 -5.91877,1.04362 -3.47872,0 -6.15236,-0.8498 -8.02091,-2.5494 -1.86857,-1.69959 -2.80285,-3.8713 -2.80285,-6.51513 0,-1.5505 0.35284,-2.96683 1.05852,-4.24899 0.70568,-1.28214 1.63002,-2.31084 2.77303,-3.08611 1.143,-0.77524 2.43012,-1.36165 3.86137,-1.75923 1.05354,-0.27828 2.6438,-0.54664 4.7708,-0.80508 4.33346,-0.51682 7.52393,-1.13304 9.57142,-1.84868 0.0198,-0.73548 0.0298,-1.20262 0.0298,-1.40143 -3e-5,-2.18659 -0.50692,-3.72716 -1.5207,-4.62171 -1.37162,-1.21255 -3.40915,-1.81884 -6.11259,-1.81887 -2.52456,3e-5 -4.38815,0.44232 -5.59078,1.32688 -1.20265,0.88461 -2.0922,2.45003 -2.66866,4.69626 l -5.24789,-0.71562 c 0.47708,-2.24623 1.26227,-4.06012 2.35559,-5.4417 1.0933,-1.38151 2.67363,-2.445 4.74098,-3.19047 2.06734,-0.7454 4.46267,-1.11812 7.18602,-1.11816 2.70343,4e-5 4.89999,0.31809 6.58967,0.95416 1.68963,0.63614 2.93203,1.43624 3.72719,2.40031 0.7951,0.96413 1.3517,2.18168 1.66978,3.65265 0.17887,0.91443 0.26833,2.56433 0.26836,4.9497 l 0,7.15621 c -3e-5,4.98947 0.11427,8.14515 0.3429,9.46705 0.22857,1.32192 0.6808,2.58916 1.35669,3.80174 l -5.60569,0 c -0.55662,-1.11319 -0.91443,-2.41522 -1.07343,-3.9061 z m -0.44726,-11.98663 c -1.9481,0.79514 -4.87021,1.47101 -8.76635,2.02759 -2.20651,0.31806 -3.76695,0.67587 -4.68135,1.07343 -0.91441,0.39758 -1.62009,0.97902 -2.11704,1.74432 -0.49697,0.76533 -0.74544,1.61512 -0.74544,2.5494 0,1.43124 0.54168,2.62394 1.62506,3.5781 1.08336,0.95416 2.66865,1.43124 4.75589,1.43124 2.06733,0 3.90607,-0.45223 5.51624,-1.3567 1.61012,-0.90446 2.79288,-2.14188 3.54828,-3.71228 0.57645,-1.21257 0.86468,-3.00162 0.86471,-5.36715 z" />
      <path
         inkscape:connector-curvature="0"
         id="path3590"
         d="m -895.07527,461.30228 0,-43.71247 5.36715,0 0,43.71247 z" />
      <path
         inkscape:connector-curvature="0"
         id="path3592"
         d="m -860.69569,457.39618 c -1.98785,1.68966 -3.90114,2.88236 -5.73987,3.5781 -1.83876,0.69575 -3.81168,1.04362 -5.91877,1.04362 -3.47872,0 -6.15235,-0.8498 -8.02091,-2.5494 -1.86857,-1.69959 -2.80285,-3.8713 -2.80285,-6.51513 0,-1.5505 0.35284,-2.96683 1.05852,-4.24899 0.70568,-1.28214 1.63002,-2.31084 2.77303,-3.08611 1.143,-0.77524 2.43012,-1.36165 3.86137,-1.75923 1.05354,-0.27828 2.64381,-0.54664 4.7708,-0.80508 4.33346,-0.51682 7.52393,-1.13304 9.57142,-1.84868 0.0199,-0.73548 0.0298,-1.20262 0.0298,-1.40143 -3e-5,-2.18659 -0.50692,-3.72716 -1.52069,-4.62171 -1.37163,-1.21255 -3.40916,-1.81884 -6.11259,-1.81887 -2.52457,3e-5 -4.38816,0.44232 -5.59079,1.32688 -1.20265,0.88461 -2.0922,2.45003 -2.66866,4.69626 l -5.24788,-0.71562 c 0.47707,-2.24623 1.26227,-4.06012 2.35558,-5.4417 1.0933,-1.38151 2.67363,-2.445 4.74098,-3.19047 2.06734,-0.7454 4.46267,-1.11812 7.18602,-1.11816 2.70344,4e-5 4.89999,0.31809 6.58967,0.95416 1.68963,0.63614 2.93203,1.43624 3.72719,2.40031 0.7951,0.96413 1.3517,2.18168 1.66978,3.65265 0.17887,0.91443 0.26833,2.56433 0.26836,4.9497 l 0,7.15621 c -3e-5,4.98947 0.11427,8.14515 0.3429,9.46705 0.22857,1.32192 0.6808,2.58916 1.35669,3.80174 l -5.60569,0 c -0.55662,-1.11319 -0.91443,-2.41522 -1.07343,-3.9061 z m -0.44726,-11.98663 c -1.9481,0.79514 -4.87021,1.47101 -8.76635,2.02759 -2.20651,0.31806 -3.76695,0.67587 -4.68135,1.07343 -0.91441,0.39758 -1.62009,0.97902 -2.11704,1.74432 -0.49696,0.76533 -0.74544,1.61512 -0.74544,2.5494 0,1.43124 0.54168,2.62394 1.62506,3.5781 1.08336,0.95416 2.66865,1.43124 4.75589,1.43124 2.06733,0 3.90608,-0.45223 5.51624,-1.3567 1.61012,-0.90446 2.79288,-2.14188 3.54828,-3.71228 0.57645,-1.21257 0.86469,-3.00162 0.86471,-5.36715 z" />
      <path
         inkscape:connector-curvature="0"
         id="path3594"
         d="m -847.36726,461.30228 0,-31.6662 4.83044,0 0,4.50245 c 2.32575,-3.47868 5.68519,-5.21803 10.07831,-5.21807 1.9083,4e-5 3.66256,0.34294 5.26279,1.02871 1.60018,0.68583 2.79785,1.58533 3.59301,2.69848 0.79511,1.11322 1.3517,2.43513 1.66978,3.96573 0.19876,0.99394 0.29815,2.73329 0.29818,5.21806 l 0,19.47084 -5.36715,0 0,-19.26211 c -3e-5,-2.1866 -0.20875,-3.82159 -0.62617,-4.90498 -0.41747,-1.08335 -1.15794,-1.94805 -2.22141,-2.59413 -1.06351,-0.64601 -2.31087,-0.96904 -3.74209,-0.96906 -2.28603,2e-5 -4.25895,0.72558 -5.91878,2.17667 -1.65985,1.45115 -2.48977,4.20429 -2.48976,8.25945 l 0,17.29416 z" />
      <path
         inkscape:connector-curvature="0"
         id="path3596"
         d="m -815.52216,451.85013 5.30751,-0.83489 c 0.29817,2.12699 1.12809,3.75701 2.48977,4.89007 1.36165,1.13307 3.265,1.6996 5.71005,1.6996 2.46489,0 4.2937,-0.50193 5.48642,-1.50579 1.19268,-1.00385 1.78903,-2.18164 1.78905,-3.53337 -2e-5,-1.21257 -0.5268,-2.16673 -1.58033,-2.86248 -0.73552,-0.47707 -2.56432,-1.08336 -5.48642,-1.81887 -3.93592,-0.9939 -6.66422,-1.85364 -8.1849,-2.57922 -1.5207,-0.72554 -2.67365,-1.72939 -3.45884,-3.01156 -0.78519,-1.28214 -1.17779,-2.69847 -1.17779,-4.249 0,-1.41134 0.32302,-2.71834 0.96907,-3.921 0.64604,-1.20261 1.52566,-2.2015 2.63885,-2.99666 0.83488,-0.6162 1.97292,-1.138 3.41411,-1.56542 1.44116,-0.42735 2.9867,-0.64104 4.63662,-0.64108 2.48477,4e-5 4.66642,0.35785 6.54494,1.07343 1.87848,0.71566 3.26499,1.68472 4.15954,2.90721 0.8945,1.22255 1.51073,2.85754 1.84869,4.90498 l -5.24788,0.71562 c -0.23856,-1.63 -0.92934,-2.90221 -2.07232,-3.81664 -1.14302,-0.91438 -2.75814,-1.37158 -4.84534,-1.3716 -2.46493,2e-5 -4.22416,0.40753 -5.2777,1.22251 -1.05356,0.81504 -1.58034,1.7692 -1.58033,2.86248 -10e-6,0.69577 0.21865,1.32194 0.65598,1.87851 0.43732,0.57649 1.12312,1.05357 2.05741,1.43124 0.53671,0.1988 2.11703,0.656 4.74099,1.3716 3.79674,1.01382 6.44552,1.84374 7.94636,2.48976 1.50079,0.64607 2.67858,1.58532 3.53338,2.81776 0.85474,1.23247 1.28212,2.7631 1.28215,4.59189 -3e-5,1.78906 -0.52184,3.47375 -1.56542,5.05407 -1.04364,1.58033 -2.54942,2.80285 -4.51735,3.66756 -1.96798,0.8647 -4.19435,1.29706 -6.67912,1.29706 -4.11483,0 -7.25064,-0.85477 -9.40743,-2.56431 -2.1568,-1.70953 -3.53337,-4.24402 -4.12972,-7.60346 z" />
      <path
         inkscape:connector-curvature="0"
         id="path3598"
         d="m -771.12389,456.50166 0.77525,4.74098 c -1.51077,0.31805 -2.86249,0.47708 -4.05518,0.47708 -1.94809,0 -3.45884,-0.30811 -4.53226,-0.92434 -1.07344,-0.61623 -1.82881,-1.42627 -2.26613,-2.43013 -0.43733,-1.00385 -0.65599,-3.11592 -0.65599,-6.33622 l 0,-18.21849 -3.93591,0 0,-4.17446 3.93591,0 0,-7.842 5.33734,-3.22029 0,11.06229 5.39697,0 0,4.17446 -5.39697,0 0,18.51667 c -10e-6,1.53064 0.0944,2.51461 0.28326,2.95193 0.18884,0.43733 0.49695,0.7852 0.92435,1.04361 0.42737,0.25843 1.03863,0.38764 1.83377,0.38763 0.59634,1e-5 1.38153,-0.0696 2.35559,-0.20872 z" />
      <path
         inkscape:connector-curvature="0"
         id="path3600"
         d="m -744.22851,451.10469 5.54606,0.6858 c -0.87468,3.24018 -2.49476,5.75478 -4.86025,7.54383 -2.36555,1.78905 -5.38706,2.68358 -9.06453,2.68358 -4.63166,0 -8.30418,-1.42627 -11.01757,-4.27882 -2.71339,-2.85253 -4.07009,-6.85304 -4.07009,-12.00154 0,-5.32738 1.37161,-9.46207 4.11482,-12.40408 2.7432,-2.94197 6.30142,-4.41296 10.67467,-4.413 4.23406,4e-5 7.69289,1.44121 10.37649,4.32354 2.68355,2.88239 4.02533,6.93756 4.02536,12.16555 -3e-5,0.31806 -0.01,0.79514 -0.0298,1.43124 l -23.61547,0 c 0.19878,3.47872 1.18275,6.14241 2.95193,7.99109 1.76916,1.84869 3.97566,2.77303 6.61949,2.77303 1.96794,0 3.64765,-0.51684 5.03916,-1.55051 1.39146,-1.03367 2.49471,-2.68357 3.30974,-4.94971 z m -17.62214,-8.6769 17.68178,0 c -0.23857,-2.66367 -0.91443,-4.66144 -2.02759,-5.99331 -1.70956,-2.06732 -3.92599,-3.101 -6.64931,-3.10102 -2.46493,2e-5 -4.53724,0.82497 -6.21695,2.47485 -1.67973,1.64992 -2.60904,3.85642 -2.78793,6.61948 z" />
      <path
         inkscape:connector-curvature="0"
         id="path3602"
         d="m -731.97351,461.30228 0,-31.6662 4.83043,0 0,4.80062 c 1.23245,-2.24622 2.37049,-3.72715 3.41411,-4.44281 1.0436,-0.71558 2.19157,-1.07339 3.44392,-1.07343 1.80891,4e-5 3.64766,0.57651 5.51624,1.72942 l -1.84869,4.97952 c -1.31198,-0.77523 -2.62395,-1.16285 -3.93591,-1.16288 -1.17283,3e-5 -2.22638,0.35287 -3.16065,1.05852 -0.93429,0.70571 -1.60022,1.68472 -1.99777,2.93703 -0.59636,1.90834 -0.89454,3.99556 -0.89453,6.26167 l 0,16.57854 z" />
      <path
         inkscape:connector-curvature="0"
         id="path3604"
         d="m -709.99801,461.30228 0,-6.11259 6.11259,0 0,6.11259 z" />
      <path
         inkscape:connector-curvature="0"
         id="path3606"
         d="m -689.63264,461.30228 -4.97953,0 0,-43.71247 5.36716,0 0,15.59456 c 2.26611,-2.84257 5.15841,-4.26387 8.67689,-4.26391 1.94806,4e-5 3.79177,0.39263 5.53115,1.1778 1.73933,0.78522 3.17057,1.88847 4.29372,3.30974 1.1231,1.42133 2.00271,3.13583 2.63885,5.14352 0.63607,2.00773 0.95413,4.15459 0.95416,6.44058 -3e-5,5.4268 -1.34182,9.62112 -4.02537,12.58299 -2.6836,2.96187 -5.90388,4.44281 -9.66087,4.44281 -3.73714,0 -6.66919,-1.56045 -8.79616,-4.68135 z m -0.0596,-16.07164 c -10e-6,3.79678 0.51683,6.53998 1.55051,8.22963 1.68965,2.7631 3.97566,4.14464 6.85803,4.14464 2.34562,0 4.37321,-1.01876 6.08277,-3.0563 1.70951,-2.03752 2.56428,-5.07393 2.56431,-9.10925 -3e-5,-4.13467 -0.82001,-7.18599 -2.45995,-9.15397 -1.63998,-1.96793 -3.62284,-2.95191 -5.94859,-2.95193 -2.34566,2e-5 -4.37325,1.01879 -6.08277,3.05629 -1.70955,2.03755 -2.56432,4.98451 -2.56431,8.84089 z" />
      <path
         inkscape:connector-curvature="0"
         id="path3608"
         d="m -660.82893,473.49764 -0.59635,-5.03916 c 1.17282,0.31804 2.19655,0.47707 3.0712,0.47708 1.1927,-1e-5 2.14686,-0.19879 2.86248,-0.59635 0.71561,-0.39758 1.30202,-0.95417 1.75924,-1.66978 0.33792,-0.53672 0.88457,-1.86857 1.63996,-3.99555 0.0994,-0.29817 0.25841,-0.7355 0.47708,-1.31197 l -12.01646,-31.72583 5.7846,0 6.58967,18.33777 c 0.85475,2.32578 1.62007,4.77081 2.29595,7.33511 0.61621,-2.46491 1.35171,-4.87018 2.20649,-7.21584 l 6.76858,-18.45704 5.36715,0 -12.04627,32.20291 c -1.29211,3.47871 -2.29597,5.87404 -3.01157,7.18602 -0.95418,1.76916 -2.04748,3.06622 -3.27993,3.89119 -1.23247,0.82493 -2.70346,1.23741 -4.41299,1.23742 -1.03368,-10e-6 -2.18662,-0.21867 -3.45883,-0.65598 z" />
    </g>
  </g>
</svg>
