<?xml version="1.0" encoding="UTF-8" standalone="no"?>
<!-- Created with Inkscape (http://www.inkscape.org/) -->

<svg
   xmlns:dc="http://purl.org/dc/elements/1.1/"
   xmlns:cc="http://creativecommons.org/ns#"
   xmlns:rdf="http://www.w3.org/1999/02/22-rdf-syntax-ns#"
   xmlns:svg="http://www.w3.org/2000/svg"
   xmlns="http://www.w3.org/2000/svg"
   xmlns:sodipodi="http://sodipodi.sourceforge.net/DTD/sodipodi-0.dtd"
   xmlns:inkscape="http://www.inkscape.org/namespaces/inkscape"
   width="680"
   height="680"
   id="svg3537"
   version="1.1"
   inkscape:version="0.48.4 r9939"
   sodipodi:docname="f_banner_3_curves.svg"
   inkscape:export-filename="/home/svet/Dropbox/falanster/design/logo/banners/f_banner_3.png"
   inkscape:export-xdpi="300"
   inkscape:export-ydpi="300">
  <defs
     id="defs3539" />
  <sodipodi:namedview
     id="base"
     pagecolor="#ffffff"
     bordercolor="#666666"
     borderopacity="1.0"
     inkscape:pageopacity="0.0"
     inkscape:pageshadow="2"
     inkscape:zoom="0.35"
     inkscape:cx="337.85709"
     inkscape:cy="176.64031"
     inkscape:document-units="px"
     inkscape:current-layer="layer1"
     showgrid="false"
     inkscape:window-width="1301"
     inkscape:window-height="744"
     inkscape:window-x="65"
     inkscape:window-y="24"
     inkscape:window-maximized="1"
     fit-margin-top="0"
     fit-margin-left="0"
     fit-margin-right="0"
     fit-margin-bottom="0" />
  <metadata
     id="metadata3542">
    <rdf:RDF>
      <cc:Work
         rdf:about="">
        <dc:format>image/svg+xml</dc:format>
        <dc:type
           rdf:resource="http://purl.org/dc/dcmitype/StillImage" />
        <dc:title></dc:title>
      </cc:Work>
    </rdf:RDF>
  </metadata>
  <g
     inkscape:label="Layer 1"
     inkscape:groupmode="layer"
     id="layer1"
     transform="translate(-37.14291,-200.93359)">
    <rect
       style="fill:none;stroke:none"
       id="rect3133"
       width="680"
       height="680"
       x="37.14291"
       y="200.93359" />
    <g
       style="font-size:83.69748688px;font-style:normal;font-weight:normal;line-height:89.99999762%;letter-spacing:0px;word-spacing:0px;fill:#1a1a1a;fill-opacity:1;stroke:none;font-family:Sans"
       id="text3109">
      <path
         d="m 147.50998,736.91217 0,-7.68317 7.43796,0 0,7.68317 c 7.62863,0.40873 13.64983,2.70414 18.06362,6.88624 4.41367,4.18219 6.62054,9.37922 6.6206,15.59111 -6e-5,6.07572 -2.13881,11.23869 -6.41627,15.48894 -4.27755,4.25027 -10.36687,6.59336 -18.26795,7.02928 l 0,7.72403 -7.43796,0 0,-7.72403 c -7.0838,-0.27245 -12.98239,-2.43163 -17.69581,-6.47757 -4.71344,-4.0459 -7.07015,-9.39278 -7.07015,-16.04065 0,-6.67506 2.3499,-12.01513 7.04972,-16.02022 4.69979,-4.00501 10.6052,-6.15738 17.71624,-6.45713 z m 7.43796,6.78407 0,31.38656 c 5.12207,-0.24519 9.15437,-1.73006 12.0969,-4.4546 2.94244,-2.72451 4.41368,-6.47073 4.41373,-11.23868 -5e-5,-4.68615 -1.44405,-8.39832 -4.33199,-11.13651 -2.88805,-2.7381 -6.94759,-4.25703 -12.17864,-4.55677 z m -7.43796,0.0409 c -4.93142,0.21801 -8.92285,1.67563 -11.9743,4.37286 -3.05149,2.69733 -4.57722,6.45717 -4.57721,11.27955 -1e-5,4.76795 1.50529,8.51417 4.51591,11.23868 3.01058,2.72454 7.02244,4.19578 12.0356,4.41373 z"
         style="fill:#1a1a1a;font-family:Arial;-inkscape-font-specification:Arial"
         id="path3764"
         inkscape:connector-curvature="0" />
      <path
         d="m 182.86072,789.63177 23.00864,-59.91236 8.54139,0 24.52075,59.91236 -9.03181,0 -6.98841,-18.14535 -25.05203,0 -6.57974,18.14535 z m 17.28713,-24.60248 20.31135,0 -6.25279,-16.59237 c -1.9072,-5.04033 -3.32395,-9.18161 -4.25026,-12.42385 -0.7629,3.84164 -1.83908,7.65597 -3.22857,11.44302 z"
         style="fill:#1a1a1a;font-family:Arial;-inkscape-font-specification:Arial"
         id="path3766"
         inkscape:connector-curvature="0" />
      <path
         d="m 249.72063,729.71941 37.51674,0 0,59.91236 -7.92837,0 0,-52.84221 -21.66,0 0,30.85528 c -10e-6,6.26643 -0.2929,10.85725 -0.87866,13.77248 -0.58579,2.91525 -1.81863,5.18342 -3.69854,6.80451 -1.87994,1.6211 -4.2639,2.43164 -7.15189,2.43164 -1.7437,0 -3.84158,-0.32694 -6.29365,-0.98083 l 1.34864,-7.02928 c 1.30777,0.54491 2.42482,0.81737 3.35117,0.81736 1.79818,10e-6 3.14682,-0.67431 4.04592,-2.02296 0.89908,-1.34863 1.34863,-4.52952 1.34864,-9.54266 z"
         style="font-variant:normal;font-stretch:normal;line-height:89.99999762%;fill:#1a1a1a;font-family:Arial;-inkscape-font-specification:Arial"
         id="path3768"
         inkscape:connector-curvature="0" />
      <path
         d="m 293.6945,789.63177 23.00864,-59.91236 8.54139,0 24.52075,59.91236 -9.03181,0 -6.98841,-18.14535 -25.05203,0 -6.57974,18.14535 z m 17.28713,-24.60248 20.31135,0 -6.25279,-16.59237 c -1.90719,-5.04033 -3.32395,-9.18161 -4.25026,-12.42385 -0.76289,3.84164 -1.83908,7.65597 -3.22856,11.44302 z"
         style="font-variant:normal;font-stretch:normal;line-height:89.99999762%;fill:#1a1a1a;font-family:Arial;-inkscape-font-specification:Arial"
         id="path3770"
         inkscape:connector-curvature="0" />
      <path
         d="m 356.42675,789.63177 0,-59.91236 7.92837,0 0,24.60249 31.14135,0 0,-24.60249 7.92838,0 0,59.91236 -7.92838,0 0,-28.23972 -31.14135,0 0,28.23972 z"
         style="font-variant:normal;font-stretch:normal;line-height:89.99999762%;fill:#1a1a1a;font-family:Arial;-inkscape-font-specification:Arial"
         id="path3772"
         inkscape:connector-curvature="0" />
      <path
         d="m 459.41389,768.62567 7.92838,2.00253 c -1.66202,6.51163 -4.65219,11.47708 -8.97051,14.89635 -4.31842,3.41928 -9.59719,5.12892 -15.83632,5.12892 -6.45715,0 -11.70867,-1.31458 -15.75458,-3.94375 -4.04593,-2.62916 -7.12465,-6.43669 -9.23615,-11.42258 -2.11151,-4.98587 -3.16726,-10.33956 -3.16726,-16.06109 0,-6.23913 1.19198,-11.68137 3.57594,-16.32673 2.38395,-4.64527 5.77599,-8.17353 10.17611,-10.58479 4.40009,-2.41115 9.24294,-3.61675 14.52855,-3.61681 5.99392,6e-5 11.03429,1.52579 15.12112,4.5772 4.08674,3.05153 6.93387,7.34265 8.5414,12.87339 l -7.80577,1.83906 c -1.38956,-4.3592 -3.40571,-7.53327 -6.04845,-9.52222 -2.64284,-1.98885 -5.96676,-2.98331 -9.97177,-2.98336 -4.60448,5e-5 -8.45288,1.10349 -11.54519,3.3103 -3.09236,2.20692 -5.26517,5.16984 -6.51843,8.88877 -1.2533,3.71902 -1.87994,7.55379 -1.87993,11.50432 -1e-5,5.09489 0.74242,9.54268 2.2273,13.34337 1.48486,3.80073 3.79389,6.64105 6.92712,8.52096 3.13318,1.87993 6.52521,2.81989 10.17611,2.81989 4.44094,0 8.20078,-1.28052 11.27954,-3.84158 3.07867,-2.56105 5.16293,-6.36176 6.25279,-11.40215 z"
         style="font-variant:normal;font-stretch:normal;line-height:89.99999762%;fill:#1a1a1a;font-family:Arial;-inkscape-font-specification:Arial"
         id="path3774"
         inkscape:connector-curvature="0" />
      <path
         d="m 492.39431,789.63177 0,-52.84221 -19.7392,0 0,-7.07015 47.48852,0 0,7.07015 -19.82094,0 0,52.84221 z"
         style="font-variant:normal;font-stretch:normal;line-height:89.99999762%;fill:#1a1a1a;font-family:Arial;-inkscape-font-specification:Arial"
         id="path3776"
         inkscape:connector-curvature="0" />
      <path
         d="m 547.44339,755.18012 0,7.07015 22.27301,0 c -0.29974,6.72961 -2.16604,12.03562 -5.5989,15.91806 -3.43294,3.88245 -7.83305,5.82368 -13.20034,5.82367 -9.53586,1e-5 -15.51619,-5.06761 -17.94101,-15.20286 l -7.6423,2.00253 c 3.46014,13.24121 11.79719,19.8618 25.01116,19.8618 9.45408,0 16.49016,-3.04465 21.10828,-9.13398 4.61802,-6.0893 6.77721,-13.58856 6.47756,-22.49778 -5e-5,-5.44902 -1.02856,-10.42128 -3.08552,-14.91679 -2.05707,-4.49542 -5.21071,-8.18715 -9.46093,-11.07521 -4.2503,-2.88794 -9.31791,-4.33193 -15.20286,-4.33199 -6.21194,6e-5 -11.40898,1.53941 -15.59111,4.61807 -4.18216,3.07877 -7.00885,7.35627 -8.48009,12.83252 l 7.7649,2.0434 c 2.26135,-8.36425 7.7104,-12.54639 16.34717,-12.54645 5.83045,6e-5 10.40084,1.75737 13.71118,5.27196 3.31026,3.51469 5.12888,8.26898 5.45587,14.2629 z"
         style="font-variant:normal;font-stretch:normal;line-height:89.99999762%;fill:#1a1a1a;font-family:Arial;-inkscape-font-specification:Arial"
         id="path3778"
         inkscape:connector-curvature="0" />
      <path
         d="m 588.47477,789.63177 0,-59.91236 22.59996,0 c 3.97777,6e-5 7.01562,0.19078 9.11354,0.57215 2.94245,0.49048 5.40814,1.42363 7.39709,2.79946 1.98886,1.37594 3.58952,3.30354 4.80198,5.78281 1.21237,2.47936 1.81857,5.20389 1.81862,8.17358 -5e-5,5.0949 -1.62114,9.40646 -4.86328,12.93469 -3.24223,3.52829 -9.09996,5.29242 -17.5732,5.2924 l -15.36634,0 0,24.35727 z m 7.92837,-31.42742 15.48894,0 c 5.12208,3e-5 8.75932,-0.95355 10.91174,-2.86075 2.15233,-1.90714 3.22852,-4.59079 3.22856,-8.05098 -4e-5,-2.50652 -0.63349,-4.65209 -1.90036,-6.4367 -1.26694,-1.78451 -2.93571,-2.96287 -5.00632,-3.53507 -1.33505,-0.35414 -3.80074,-0.53123 -7.39709,-0.53129 l -15.32547,0 z"
         style="font-variant:normal;font-stretch:normal;line-height:89.99999762%;fill:#1a1a1a;font-family:Arial;-inkscape-font-specification:Arial"
         id="path3780"
         inkscape:connector-curvature="0" />
    </g>
    <g
       style="font-size:68.55551147px;font-style:normal;font-weight:normal;line-height:125%;letter-spacing:0px;word-spacing:0px;fill:#999999;fill-opacity:1;stroke:none;font-family:Sans"
       id="text3113">
      <path
         d="m 205.18381,849.27197 0,-30.86337 -5.32242,0 0,-4.68641 5.32242,0 0,-3.7826 c -1e-5,-2.3878 0.212,-4.16194 0.63601,-5.32243 0.58022,-1.56209 1.60119,-2.82853 3.06291,-3.79934 1.4617,-0.97071 3.50922,-1.45608 6.14255,-1.45613 1.69601,5e-5 3.57058,0.20089 5.62369,0.60253 l -0.90381,5.25548 c -1.24973,-0.22312 -2.43249,-0.3347 -3.54828,-0.33474 -1.82995,4e-5 -3.12429,0.39058 -3.88303,1.1716 -0.75876,0.78111 -1.13814,2.24282 -1.13813,4.38514 l 0,3.28049 6.9292,0 0,4.68641 -6.9292,0 0,30.86337 z"
         id="path3783"
         inkscape:connector-curvature="0" />
      <path
         d="m 245.95559,844.88683 c -2.23165,1.89688 -4.37958,3.23586 -6.44381,4.01692 -2.06427,0.78107 -4.27916,1.17161 -6.64466,1.17161 -3.90536,0 -6.90689,-0.95402 -9.00461,-2.86206 -2.09773,-1.90804 -3.14659,-4.34608 -3.14659,-7.31415 0,-1.74066 0.39611,-3.33069 1.18834,-4.7701 0.79222,-1.43938 1.82993,-2.59425 3.11312,-3.4646 1.28317,-0.87031 2.72815,-1.52864 4.33493,-1.97498 1.18275,-0.31241 2.96804,-0.61368 5.3559,-0.90381 4.86492,-0.5802 8.44667,-1.27201 10.74527,-2.07541 0.0223,-0.82568 0.0334,-1.35011 0.0335,-1.5733 -2e-5,-2.45476 -0.56909,-4.18427 -1.70719,-5.18853 -1.53984,-1.36126 -3.82726,-2.0419 -6.86225,-2.04193 -2.83418,3e-5 -4.92632,0.49656 -6.27644,1.48961 -1.35014,0.9931 -2.3488,2.7505 -2.99596,5.27221 l -5.89149,-0.80338 c 0.53559,-2.52171 1.41708,-4.55807 2.64448,-6.10908 1.22739,-1.55094 3.00153,-2.74486 5.32242,-3.58176 2.32088,-0.83682 5.00999,-1.25525 8.06733,-1.25528 3.03498,3e-5 5.50093,0.35709 7.39783,1.07118 1.89686,0.71415 3.29162,1.61238 4.1843,2.69468 0.89262,1.08237 1.51747,2.44924 1.87456,4.10061 0.20082,1.02658 0.30124,2.87882 0.30127,5.55675 l 0,8.03385 c -3e-5,5.60138 0.12829,9.14409 0.38496,10.62811 0.2566,1.48403 0.7643,2.90669 1.52308,4.26798 l -6.29318,0 c -0.62488,-1.24971 -1.02657,-2.71142 -1.20508,-4.38514 z m -0.50211,-13.4567 c -2.18702,0.89267 -5.4675,1.65142 -9.84147,2.27626 -2.47711,0.35708 -4.22894,0.75877 -5.25547,1.20508 -1.02656,0.44634 -1.81879,1.09909 -2.37668,1.95825 -0.55792,0.85919 -0.83687,1.8132 -0.83686,2.86206 -1e-5,1.60677 0.60811,2.94575 1.82435,4.01692 1.21622,1.07119 2.99594,1.60678 5.33916,1.60677 2.32087,10e-6 4.38513,-0.50769 6.19276,-1.52308 1.80759,-1.01539 3.13541,-2.40457 3.98345,-4.16756 0.64715,-1.36128 0.97073,-3.36974 0.97076,-6.02539 z"
         id="path3785"
         inkscape:connector-curvature="0" />
      <path
         d="m 260.78474,849.27197 0,-49.07342 6.02539,0 0,49.07342 z"
         id="path3787"
         inkscape:connector-curvature="0" />
      <path
         d="m 299.38069,844.88683 c -2.23165,1.89688 -4.37959,3.23586 -6.44382,4.01692 -2.06427,0.78107 -4.27915,1.17161 -6.64466,1.17161 -3.90535,0 -6.90689,-0.95402 -9.00461,-2.86206 -2.09773,-1.90804 -3.14659,-4.34608 -3.14659,-7.31415 0,-1.74066 0.39611,-3.33069 1.18834,-4.7701 0.79223,-1.43938 1.82993,-2.59425 3.11312,-3.4646 1.28318,-0.87031 2.72815,-1.52864 4.33493,-1.97498 1.18275,-0.31241 2.96805,-0.61368 5.3559,-0.90381 4.86492,-0.5802 8.44668,-1.27201 10.74527,-2.07541 0.0223,-0.82568 0.0334,-1.35011 0.0335,-1.5733 -3e-5,-2.45476 -0.56909,-4.18427 -1.7072,-5.18853 -1.53984,-1.36126 -3.82725,-2.0419 -6.86224,-2.04193 -2.83418,3e-5 -4.92633,0.49656 -6.27645,1.48961 -1.35014,0.9931 -2.34879,2.7505 -2.99595,5.27221 l -5.89149,-0.80338 c 0.53558,-2.52171 1.41708,-4.55807 2.64447,-6.10908 1.22739,-1.55094 3.00153,-2.74486 5.32243,-3.58176 2.32088,-0.83682 5.00998,-1.25525 8.06732,-1.25528 3.03499,3e-5 5.50093,0.35709 7.39784,1.07118 1.89685,0.71415 3.29161,1.61238 4.18429,2.69468 0.89262,1.08237 1.51748,2.44924 1.87457,4.10061 0.20081,1.02658 0.30124,2.87882 0.30127,5.55675 l 0,8.03385 c -3e-5,5.60138 0.12828,9.14409 0.38495,10.62811 0.25661,1.48403 0.7643,2.90669 1.52309,4.26798 l -6.29318,0 c -0.62489,-1.24971 -1.02658,-2.71142 -1.20508,-4.38514 z m -0.50212,-13.4567 c -2.18701,0.89267 -5.4675,1.65142 -9.84146,2.27626 -2.47712,0.35708 -4.22894,0.75877 -5.25548,1.20508 -1.02656,0.44634 -1.81878,1.09909 -2.37668,1.95825 -0.55791,0.85919 -0.83687,1.8132 -0.83686,2.86206 -10e-6,1.60677 0.60811,2.94575 1.82436,4.01692 1.21622,1.07119 2.99594,1.60678 5.33916,1.60677 2.32087,10e-6 4.38512,-0.50769 6.19276,-1.52308 1.80759,-1.01539 3.1354,-2.40457 3.98345,-4.16756 0.64714,-1.36128 0.97073,-3.36974 0.97075,-6.02539 z"
         id="path3789"
         inkscape:connector-curvature="0" />
      <path
         d="m 314.34373,849.27197 0,-35.54978 5.42285,0 0,5.05463 c 2.61099,-3.90531 6.38243,-5.85798 11.31434,-5.85801 2.14233,3e-5 4.11174,0.38499 5.90822,1.15486 1.79643,0.76995 3.14099,1.77976 4.03367,3.02943 0.89261,1.24974 1.51747,2.73377 1.87456,4.45209 0.22313,1.11584 0.33471,3.06851 0.33474,5.85802 l 0,21.85876 -6.02538,0 0,-21.62444 c -3e-5,-2.45476 -0.23435,-4.29027 -0.70296,-5.50653 -0.46867,-1.21621 -1.29995,-2.18697 -2.49385,-2.91228 -1.19394,-0.72524 -2.59428,-1.08788 -4.20103,-1.08791 -2.56638,3e-5 -4.78127,0.81457 -6.64466,2.44363 -1.86342,1.62911 -2.79512,4.71991 -2.79511,9.2724 l 0,19.41513 z"
         id="path3791"
         inkscape:connector-curvature="0" />
      <path
         d="m 350.09436,838.6606 5.95844,-0.93729 c 0.33473,2.38785 1.26643,4.21778 2.79511,5.4898 1.52865,1.27203 3.66543,1.90804 6.41034,1.90804 2.76719,0 4.82029,-0.56348 6.15928,-1.69046 1.33895,-1.12696 2.00844,-2.44919 2.00847,-3.96671 -3e-5,-1.36128 -0.59141,-2.43246 -1.77415,-3.21354 -0.82572,-0.53557 -2.87881,-1.21622 -6.15928,-2.04193 -4.41863,-1.1158 -7.48153,-2.08098 -9.18872,-2.89554 -1.70719,-0.81452 -3.00154,-1.94149 -3.88302,-3.38091 -0.8815,-1.43937 -1.32224,-3.0294 -1.32224,-4.7701 0,-1.58442 0.36264,-3.05171 1.08792,-4.40188 0.72527,-1.3501 1.71276,-2.47149 2.96248,-3.36417 0.93727,-0.69177 2.21488,-1.27757 3.83281,-1.75741 1.61792,-0.47976 3.35301,-0.71966 5.20527,-0.71969 2.78951,3e-5 5.23872,0.40172 7.34762,1.20507 2.10886,0.80342 3.66542,1.89134 4.66968,3.26375 1.0042,1.37248 1.696,3.20799 2.07541,5.50654 l -5.89149,0.80338 c -0.26782,-1.8299 -1.04331,-3.25814 -2.32647,-4.28472 -1.2832,-1.02651 -3.0964,-1.53979 -5.43958,-1.53982 -2.76723,3e-5 -4.74222,0.45752 -5.92497,1.37245 -1.18277,0.915 -1.77415,1.98618 -1.77414,3.21354 -1e-5,0.7811 0.24547,1.48406 0.73644,2.10889 0.49094,0.64719 1.26085,1.18278 2.30973,1.60677 0.60252,0.22318 2.37666,0.73646 5.32242,1.53982 4.26239,1.13815 7.23602,2.06985 8.92092,2.79511 1.68485,0.72529 3.00709,1.77974 3.96672,3.16333 0.95956,1.38362 1.43936,3.10197 1.43939,5.15505 -3e-5,2.00847 -0.58583,3.89977 -1.7574,5.6739 -1.17163,1.77415 -2.86209,3.1466 -5.07137,4.11735 -2.20933,0.97076 -4.70875,1.45614 -7.49826,1.45614 -4.61947,0 -8.13986,-0.9596 -10.56116,-2.8788 -2.42132,-1.91919 -3.96672,-4.76451 -4.6362,-8.53596 z"
         id="path3793"
         inkscape:connector-curvature="0" />
      <path
         d="m 399.9377,843.8826 0.87033,5.32242 c -1.69605,0.35706 -3.21355,0.53559 -4.55251,0.53559 -2.18701,0 -3.88304,-0.3459 -5.08811,-1.0377 -1.20508,-0.6918 -2.0531,-1.60119 -2.54405,-2.72816 -0.49096,-1.12697 -0.73644,-3.49807 -0.73644,-7.11331 l 0,-20.45284 -4.41861,0 0,-4.68641 4.41861,0 0,-8.80376 5.99192,-3.61523 0,12.41899 6.05886,0 0,4.68641 -6.05886,0 0,20.78759 c -2e-5,1.71836 0.10599,2.82301 0.318,3.31396 0.21199,0.49096 0.5579,0.8815 1.03771,1.1716 0.47978,0.29012 1.16601,0.43517 2.05867,0.43517 0.66947,0 1.55096,-0.0781 2.64448,-0.23432 z"
         id="path3795"
         inkscape:connector-curvature="0" />
      <path
         d="m 430.13158,837.82374 6.22623,0.76991 c -0.98195,3.63755 -2.80072,6.46056 -5.45632,8.46901 -2.65566,2.00847 -6.04773,3.0127 -10.17621,3.0127 -5.1997,0 -9.32262,-1.60119 -12.36878,-4.80357 -3.04617,-3.20238 -4.56925,-7.69352 -4.56925,-13.47344 0,-5.98073 1.53982,-10.6225 4.61946,-13.92534 3.07964,-3.30277 7.07424,-4.95417 11.98383,-4.9542 4.75333,3e-5 8.63636,1.61796 11.64908,4.85378 3.01266,3.23588 4.519,7.78839 4.51904,13.65754 -4e-5,0.35708 -0.0112,0.89267 -0.0335,1.60677 l -26.5117,0 c 0.22316,3.90536 1.32781,6.89573 3.31397,8.97113 1.98613,2.07542 4.46323,3.11312 7.43131,3.11312 2.20928,0 4.095,-0.58022 5.65716,-1.74067 1.56212,-1.16043 2.80067,-3.01268 3.71566,-5.55674 z m -19.78335,-9.74104 19.8503,0 c -0.26782,-2.99036 -1.02658,-5.23314 -2.27626,-6.72835 -1.91922,-2.32086 -4.40748,-3.48131 -7.46478,-3.48134 -2.76723,3e-5 -5.0937,0.92616 -6.97941,2.77838 -1.88573,1.85227 -2.92902,4.32937 -3.12985,7.43131 z"
         id="path3797"
         inkscape:connector-curvature="0" />
      <path
         d="m 443.88955,849.27197 0,-35.54978 5.42284,0 0,5.38937 c 1.3836,-2.5217 2.6612,-4.18426 3.83282,-4.98768 1.17159,-0.80335 2.46035,-1.20504 3.86629,-1.20507 2.03076,3e-5 4.09501,0.6472 6.19276,1.94151 l -2.07541,5.59022 c -1.4729,-0.8703 -2.94577,-1.30547 -4.41862,-1.3055 -1.31667,3e-5 -2.49943,0.39614 -3.54828,1.18834 -1.04888,0.79225 -1.79647,1.89133 -2.24279,3.29722 -0.66949,2.14239 -1.00424,4.48559 -1.00423,7.02962 l 0,18.61175 z"
         id="path3799"
         inkscape:connector-curvature="0" />
      <path
         d="m 468.56016,849.27197 0,-6.86224 6.86224,0 0,6.86224 z"
         id="path3801"
         inkscape:connector-curvature="0" />
      <path
         d="m 491.42317,849.27197 -5.59022,0 0,-49.07342 6.02538,0 0,17.50709 c 2.54404,-3.19119 5.79105,-4.7868 9.74105,-4.78683 2.18697,3e-5 4.2568,0.44078 6.20949,1.32223 1.95264,0.88153 3.55941,2.12008 4.82031,3.71566 1.26084,1.59564 2.24833,3.52041 2.96248,5.77433 0.71409,2.25396 1.07115,4.66411 1.07118,7.23046 -3e-5,6.09235 -1.50638,10.80107 -4.51904,14.12619 -3.01272,3.32512 -6.62795,4.98768 -10.84569,4.98768 -4.19547,0 -7.48712,-1.75183 -9.87494,-5.25548 z m -0.067,-18.04268 c -1e-5,4.26241 0.58021,7.34205 1.74067,9.23892 1.89686,3.10197 4.46323,4.65294 7.6991,4.65294 2.6333,0 4.90955,-1.1437 6.82877,-3.43112 1.91917,-2.28741 2.87877,-5.69621 2.8788,-10.22642 -3e-5,-4.64176 -0.92057,-8.0673 -2.76164,-10.27663 -1.84111,-2.20928 -4.06716,-3.31394 -6.67813,-3.31397 -2.63334,3e-5 -4.90959,1.14374 -6.82878,3.43113 -1.9192,2.28744 -2.8788,5.59582 -2.87879,9.92515 z"
         id="path3803"
         inkscape:connector-curvature="0" />
      <path
         d="m 523.75939,862.96299 -0.66948,-5.65717 c 1.31665,0.35705 2.46594,0.53558 3.44786,0.53559 1.33896,-10e-6 2.41014,-0.22317 3.21354,-0.66949 0.80337,-0.44633 1.4617,-1.07118 1.97498,-1.87456 0.37937,-0.60254 0.99306,-2.09773 1.84109,-4.48557 0.11157,-0.33474 0.2901,-0.8257 0.53559,-1.47287 l -13.49017,-35.61673 6.49403,0 7.39784,20.58674 c 0.95958,2.61101 1.81875,5.35591 2.57752,8.23469 0.69179,-2.7672 1.51749,-5.46746 2.47711,-8.10079 l 7.59868,-20.72064 6.02539,0 -13.52365,36.15232 c -1.45058,3.90534 -2.57754,6.59445 -3.38091,8.06732 -1.0712,1.98614 -2.29859,3.44227 -3.68218,4.36841 -1.38362,0.92611 -3.03502,1.38917 -4.95421,1.38919 -1.16045,-2e-5 -2.45479,-0.2455 -3.88303,-0.73644 z"
         id="path3805"
         inkscape:connector-curvature="0" />
    </g>
    <g
       style="font-size:713.92260742px;font-style:normal;font-weight:normal;line-height:125%;letter-spacing:0px;word-spacing:0px;fill:#ff2a2a;fill-opacity:1;stroke:none;font-family:Sans"
       id="text3129">
      <path
         d="m 432.21219,378.88761 -7.84339,6.42722 0,160.63695 43.55259,0 45.68774,-90.6565 -67.82352,-74.96971 z M 329.42023,220.4076 l -14.29239,-0.71898 118.5223,10.7193 0,58.54218 34.96844,-10.7193 120.65745,47.12569 24.27093,136.34423 -38.54154,147.7825 -99.95962,29.28198 -59.23936,3.5731 17.8437,76.38589 -124.23055,0 0,-76.38589 -45.68773,-2.85412 -95.66755,-47.12569 -47.12569,-132.07394 39.2823,-124.23055 115.6464,-53.53112 34.27125,0 z m 0,159.91797 0,2.13514 -47.84467,-5.70824 -63.53144,92.81342 59.95835,89.24033 47.84466,-19.28166 -6.42722,-67.82352 z"
         style="font-variant:normal;font-weight:600;font-stretch:normal;fill:#ff2a2a;font-family:a_AlternaBrk;-inkscape-font-specification:a_AlternaBrk Semi-Bold"
         id="path3761"
         inkscape:connector-curvature="0" />
    </g>
  </g>
</svg>
