<?xml version="1.0" encoding="UTF-8" standalone="no"?>
<!-- Created with Inkscape (http://www.inkscape.org/) -->

<svg
   xmlns:dc="http://purl.org/dc/elements/1.1/"
   xmlns:cc="http://creativecommons.org/ns#"
   xmlns:rdf="http://www.w3.org/1999/02/22-rdf-syntax-ns#"
   xmlns:svg="http://www.w3.org/2000/svg"
   xmlns="http://www.w3.org/2000/svg"
   xmlns:sodipodi="http://sodipodi.sourceforge.net/DTD/sodipodi-0.dtd"
   xmlns:inkscape="http://www.inkscape.org/namespaces/inkscape"
   width="989.65302"
   height="278.81866"
   id="svg3896"
   version="1.1"
   inkscape:version="0.48.4 r9939"
   sodipodi:docname="f_logo_1_curves.svg"
   inkscape:export-filename="/home/svet/Dropbox/falanster/design/logo/banners/f_logo_1.png"
   inkscape:export-xdpi="300"
   inkscape:export-ydpi="300">
  <defs
     id="defs3898" />
  <sodipodi:namedview
     inkscape:document-units="mm"
     pagecolor="#ffffff"
     bordercolor="#666666"
     borderopacity="1.0"
     inkscape:pageopacity="0.0"
     inkscape:pageshadow="2"
     inkscape:zoom="0.43415836"
     inkscape:cx="551.93775"
     inkscape:cy="157.98623"
     inkscape:current-layer="layer1"
     id="namedview3900"
     showgrid="false"
     inkscape:window-width="1301"
     inkscape:window-height="744"
     inkscape:window-x="65"
     inkscape:window-y="24"
     inkscape:window-maximized="1"
     units="mm"
     fit-margin-top="0"
     fit-margin-left="0"
     fit-margin-right="0"
     fit-margin-bottom="0" />
  <metadata
     id="metadata3902">
    <rdf:RDF>
      <cc:Work
         rdf:about="">
        <dc:format>image/svg+xml</dc:format>
        <dc:type
           rdf:resource="http://purl.org/dc/dcmitype/StillImage" />
        <dc:title></dc:title>
      </cc:Work>
    </rdf:RDF>
  </metadata>
  <g
     inkscape:label="Layer 1"
     inkscape:groupmode="layer"
     id="layer1"
     transform="translate(-38.389098,-243.26205)">
    <path
       inkscape:connector-curvature="0"
       id="rect3117"
       d="m 38.389098,243.26205 989.653002,0 0,278.81866 -989.653002,0 z"
       style="fill:none;stroke:none" />
    <g
       id="text3109"
       style="font-size:158.77285767px;font-style:normal;font-weight:normal;line-height:125%;letter-spacing:0px;word-spacing:0px;fill:#ff2a2a;fill-opacity:1;stroke:none;font-family:Sans"
       transform="matrix(1.0723795,0,0,1.0723795,1312.9886,46.168638)">
      <path
         inkscape:connector-curvature="0"
         id="path3825"
         style="font-variant:normal;font-weight:600;font-stretch:normal;letter-spacing:12px;fill:#ff2a2a;font-family:a_AlternaBrk;-inkscape-font-specification:a_AlternaBrk Semi-Bold"
         d="m -1083.5806,276.39321 -1.7443,1.42938 0,35.72486 9.6859,0 10.1607,-20.16155 -15.0836,-16.6729 z m -22.8604,-35.24517 -3.1785,-0.1599 26.3587,2.38392 0,13.01949 7.7769,-2.38392 26.8336,10.48052 5.3977,30.32229 -8.5714,32.86609 -22.2306,6.51217 -13.1745,0.79464 3.9683,16.98784 -27.6282,0 0,-16.98784 -10.1607,-0.63474 -21.276,-10.48052 -10.4806,-29.37259 8.7362,-27.62826 25.7192,-11.90506 7.6218,0 z m 0,35.56496 0,0.47485 -10.6404,-1.26949 -14.1291,20.64125 13.3345,19.84661 10.6404,-4.28815 -1.4294,-15.08361 z" />
      <path
         inkscape:connector-curvature="0"
         id="path3827"
         style="font-variant:normal;font-weight:600;font-stretch:normal;letter-spacing:12px;fill:#ff2a2a;font-family:a_AlternaBrk;-inkscape-font-specification:a_AlternaBrk Semi-Bold"
         d="m -993.56537,313.54745 -0.15989,-1.58927 17.30763,0 1.90423,-28.73785 -10.48052,-26.67373 -5.71753,27.62826 z m 0.31495,39.21837 0.3198,-2.38392 -22.70538,1.42939 -2.8588,-22.22568 4.763,-27.62826 2.384,-26.35393 7.4618,-17.62743 8.73135,-18.57713 23.50002,0 10.16072,20.48135 5.23784,15.87826 2.38392,28.1031 1.74433,26.35878 0,20.7963 -20.16156,3.6534 0,-21.75083 -18.73702,-3.8133 z" />
      <path
         inkscape:connector-curvature="0"
         id="path3829"
         style="font-variant:normal;font-weight:600;font-stretch:normal;letter-spacing:12px;fill:#ff2a2a;font-family:a_AlternaBrk;-inkscape-font-specification:a_AlternaBrk Semi-Bold"
         d="m -882.00769,353.56046 0,-1.11443 0,-20.32145 1.74433,-16.82795 -2.85877,-18.89692 3.33361,-16.82794 -1.74433,-20.3263 -10.48052,16.67289 -7.30196,20.64125 0,58.27034 -25.56413,-4.12825 -1.74434,-12.70454 0,-38.26384 8.2565,-27.30846 13.33444,-15.39857 15.71836,-14.13392 33.66074,-3.80846 -2.22402,20.7963 0,17.78733 -2.21918,19.05197 4.12825,17.46269 -3.17856,18.10227 1.58928,20.00166 z" />
      <path
         inkscape:connector-curvature="0"
         id="path3831"
         style="font-variant:normal;font-weight:600;font-stretch:normal;letter-spacing:12px;fill:#ff2a2a;font-family:a_AlternaBrk;-inkscape-font-specification:a_AlternaBrk Semi-Bold"
         d="m -807.07126,313.54745 -0.15989,-1.58927 17.30763,0 1.90423,-28.73785 -10.48052,-26.67373 -5.71753,27.62826 z m 0.31495,39.21837 0.3198,-2.38392 -22.70538,1.42939 -2.85876,-22.22568 4.76299,-27.62826 2.38392,-26.35393 7.46186,-17.62743 8.73134,-18.57713 23.50002,0 10.16072,20.48135 5.23784,15.87826 2.38392,28.1031 1.74433,26.35878 0,20.7963 -20.16156,3.6534 0,-21.75083 -18.73702,-3.8133 z" />
      <path
         inkscape:connector-curvature="0"
         id="path3833"
         style="font-variant:normal;font-weight:600;font-stretch:normal;letter-spacing:12px;fill:#ff2a2a;font-family:a_AlternaBrk;-inkscape-font-specification:a_AlternaBrk Semi-Bold"
         d="m -736.95597,353.56046 0.47969,-3.01866 0.94969,-15.24351 -1.90423,-21.43104 -1.26948,-18.26217 2.85876,-18.25733 -1.11443,-17.78249 0,-20.64124 25.56413,1.42938 -2.85876,19.84661 3.33361,21.59093 16.83279,-2.06412 0,-40.32796 24.92455,0 0,22.54548 -1.58928,14.44887 -1.74433,22.54547 0,33.50085 3.96835,22.23052 -24.2898,0 0,-21.11609 -1.42939,-14.76867 0,-17.78248 -20.80114,0 4.12825,16.35795 -3.17371,16.50815 1.58927,18.41722 z" />
      <path
         inkscape:connector-curvature="0"
         id="path3835"
         style="font-variant:normal;font-weight:600;font-stretch:normal;letter-spacing:12px;fill:#ff2a2a;font-family:a_AlternaBrk;-inkscape-font-specification:a_AlternaBrk Semi-Bold"
         d="m -574.7158,286.07909 0,-1.10959 -23.81496,-2.06412 1.10959,-12.38475 -12.22485,-10.95537 -6.19237,11.11527 -1.74433,15.55846 0,35.24517 10.63557,10.32062 9.68588,-7.30196 -1.90423,-23.18022 22.70537,3.96836 0,10.64041 -6.67206,28.41806 -23.18022,11.75 -26.35393,-8.41639 -6.98701,-33.18105 -2.22402,-17.46753 0,-20.48135 5.39773,-28.73785 30.16723,-9.20619 23.02032,7.61691 9.21104,30.64692 z" />
      <path
         inkscape:connector-curvature="0"
         id="path3837"
         style="font-variant:normal;font-weight:600;font-stretch:normal;letter-spacing:12px;fill:#ff2a2a;font-family:a_AlternaBrk;-inkscape-font-specification:a_AlternaBrk Semi-Bold"
         d="m -536.08566,262.42403 -0.1599,-2.85877 -16.03815,2.37908 -1.26948,-22.54548 20.96104,0 19.36691,3.9732 17.30764,-4.12825 -1.74433,24.28981 -16.513,-2.69887 0,17.30764 3.64856,21.91073 0,32.23135 -1.90423,20.48135 -24.4497,0 -1.74917,-18.57712 4.12824,-19.37176 -3.17371,-18.57712 1.58928,-16.82795 z" />
      <path
         inkscape:connector-curvature="0"
         id="path3839"
         style="font-variant:normal;font-weight:600;font-stretch:normal;letter-spacing:12px;fill:#ff2a2a;font-family:a_AlternaBrk;-inkscape-font-specification:a_AlternaBrk Semi-Bold"
         d="m -472.10466,311.16838 0.31495,2.21918 23.65991,-1.26949 -1.58928,9.05114 10.79546,11.27032 6.66722,-10.00083 0,-17.78249 -19.05196,-3.33361 0,-17.30763 23.34011,-2.06413 -4.28815,-11.27031 -9.68103,-8.5763 -7.94155,7.94155 1.90423,3.33361 -25.71919,0 7.46186,-24.76949 26.03898,-9.36609 24.13475,7.46186 12.06496,28.41806 -2.22402,22.07062 0,16.98785 -8.57145,31.43671 -25.08445,6.82712 -26.83362,-8.0966 -8.57629,-27.46837 z" />
      <path
         inkscape:connector-curvature="0"
         id="path3841"
         style="font-variant:normal;font-weight:600;font-stretch:normal;letter-spacing:12px;fill:#ff2a2a;font-family:a_AlternaBrk;-inkscape-font-specification:a_AlternaBrk Semi-Bold"
         d="m -353.94755,302.59209 -0.31495,-0.79464 9.0463,0 9.21103,-20.32145 -10.16072,-20.64125 -9.36609,-0.47485 1.58443,21.1161 z m -21.43104,47.94971 -1.90907,-0.1599 1.11443,-17.14774 -2.85876,-19.05196 3.33361,-17.14774 -1.74433,-20.64125 0,-36.99435 32.22651,0 21.12094,7.78166 10.00082,8.73134 2.06413,27.46836 -7.46186,27.78816 -23.18022,9.68104 -9.68588,2.69886 0,30.80198 z" />
    </g>
    <g
       id="text3113"
       style="font-size:56.07687759px;font-style:normal;font-weight:normal;line-height:125%;letter-spacing:0px;word-spacing:0px;fill:#333333;fill-opacity:1;stroke:none;font-family:Sans"
       transform="matrix(1.0723795,0,0,1.0723795,1312.9886,46.168638)">
      <path
         inkscape:connector-curvature="0"
         id="path3844"
         d="m -632.41812,406.92374 0,-25.24555 -4.35363,0 0,-3.83338 4.35363,0 0,-3.09409 c -10e-6,-1.95316 0.17341,-3.40437 0.52024,-4.35362 0.4746,-1.27776 1.30973,-2.31368 2.50539,-3.10778 1.19564,-0.79401 2.87046,-1.19104 5.02447,-1.19108 1.3873,4e-5 2.92065,0.16432 4.60005,0.49286 l -0.73929,4.29886 c -1.02225,-0.1825 -1.98972,-0.27377 -2.90242,-0.27381 -1.49686,4e-5 -2.5556,0.31948 -3.17623,0.95834 -0.62065,0.63894 -0.93097,1.83458 -0.93096,3.58695 l 0,2.68337 5.66792,0 0,3.83338 -5.66792,0 0,25.24555 z" />
      <path
         inkscape:connector-curvature="0"
         id="path3846"
         d="m -599.06771,403.33679 c -1.82544,1.55161 -3.58241,2.64686 -5.2709,3.28575 -1.68853,0.6389 -3.50026,0.95835 -5.43519,0.95835 -3.19449,0 -5.64968,-0.78037 -7.36556,-2.3411 -1.7159,-1.56073 -2.57385,-3.555 -2.57385,-5.98281 0,-1.42382 0.32401,-2.72443 0.97204,-3.90184 0.64802,-1.17738 1.49684,-2.12203 2.54646,-2.83396 1.04961,-0.7119 2.23157,-1.2504 3.54588,-1.6155 0.96746,-0.25554 2.42779,-0.50197 4.381,-0.73929 3.9794,-0.47459 6.90919,-1.04047 8.7894,-1.69764 0.0182,-0.67539 0.0274,-1.10436 0.0274,-1.28692 -2e-5,-2.00794 -0.46551,-3.42264 -1.39645,-4.2441 -1.25956,-1.11348 -3.13061,-1.67023 -5.61316,-1.67026 -2.3183,3e-5 -4.02963,0.40618 -5.13399,1.21847 -1.10439,0.81233 -1.92127,2.24985 -2.45063,4.31255 l -4.81911,-0.65715 c 0.4381,-2.0627 1.15914,-3.7284 2.16313,-4.99709 1.00397,-1.26864 2.45518,-2.24523 4.35362,-2.92979 1.89843,-0.68451 4.09805,-1.02677 6.59889,-1.0268 2.48255,3e-5 4.49964,0.29209 6.05127,0.8762 1.55158,0.58416 2.69246,1.31889 3.42266,2.20419 0.73014,0.88536 1.24126,2.00343 1.53335,3.35421 0.16426,0.83972 0.2464,2.35481 0.24643,4.54529 l 0,6.57151 c -3e-5,4.58181 0.10493,7.47966 0.31489,8.69356 0.20989,1.21391 0.62517,2.37761 1.24584,3.49112 l -5.14768,0 c -0.51114,-1.02224 -0.83971,-2.21789 -0.98572,-3.58695 z m -0.41072,-11.00728 c -1.78894,0.73018 -4.4723,1.35082 -8.0501,1.86193 -2.02623,0.29208 -3.45918,0.62065 -4.29886,0.98572 -0.83971,0.3651 -1.48773,0.89903 -1.94408,1.60181 -0.45636,0.7028 -0.68454,1.48316 -0.68453,2.3411 -10e-6,1.31431 0.49742,2.40956 1.49228,3.28575 0.99485,0.87621 2.45062,1.31431 4.36732,1.31431 1.89842,0 3.58693,-0.41528 5.06554,-1.24585 1.47857,-0.83056 2.56469,-1.96689 3.25837,-3.40897 0.52935,-1.1135 0.79403,-2.75638 0.79406,-4.92863 z" />
      <path
         inkscape:connector-curvature="0"
         id="path3848"
         d="m -586.9378,406.92374 0,-40.14097 4.92863,0 0,40.14097 z" />
      <path
         inkscape:connector-curvature="0"
         id="path3850"
         d="m -555.36718,403.33679 c -1.82544,1.55161 -3.5824,2.64686 -5.2709,3.28575 -1.68853,0.6389 -3.50025,0.95835 -5.43518,0.95835 -3.1945,0 -5.64968,-0.78037 -7.36557,-2.3411 -1.7159,-1.56073 -2.57384,-3.555 -2.57384,-5.98281 0,-1.42382 0.32401,-2.72443 0.97203,-3.90184 0.64802,-1.17738 1.49684,-2.12203 2.54646,-2.83396 1.04961,-0.7119 2.23157,-1.2504 3.54588,-1.6155 0.96746,-0.25554 2.4278,-0.50197 4.38101,-0.73929 3.97939,-0.47459 6.90919,-1.04047 8.78939,-1.69764 0.0182,-0.67539 0.0274,-1.10436 0.0274,-1.28692 -2e-5,-2.00794 -0.4655,-3.42264 -1.39644,-4.2441 -1.25956,-1.11348 -3.13062,-1.67023 -5.61317,-1.67026 -2.31829,3e-5 -4.02962,0.40618 -5.13399,1.21847 -1.10439,0.81233 -1.92126,2.24985 -2.45063,4.31255 l -4.8191,-0.65715 c 0.4381,-2.0627 1.15914,-3.7284 2.16312,-4.99709 1.00397,-1.26864 2.45518,-2.24523 4.35362,-2.92979 1.89843,-0.68451 4.09806,-1.02677 6.5989,-1.0268 2.48255,3e-5 4.49963,0.29209 6.05126,0.8762 1.55158,0.58416 2.69247,1.31889 3.42266,2.20419 0.73014,0.88536 1.24126,2.00343 1.53335,3.35421 0.16426,0.83972 0.24641,2.35481 0.24643,4.54529 l 0,6.57151 c -2e-5,4.58181 0.10494,7.47966 0.31489,8.69356 0.20989,1.21391 0.62518,2.37761 1.24585,3.49112 l -5.14768,0 c -0.51114,-1.02224 -0.83972,-2.21789 -0.98573,-3.58695 z m -0.41072,-11.00728 c -1.78893,0.73018 -4.47229,1.35082 -8.0501,1.86193 -2.02623,0.29208 -3.45918,0.62065 -4.29886,0.98572 -0.8397,0.3651 -1.48773,0.89903 -1.94407,1.60181 -0.45636,0.7028 -0.68454,1.48316 -0.68453,2.3411 -10e-6,1.31431 0.49741,2.40956 1.49228,3.28575 0.99484,0.87621 2.45061,1.31431 4.36731,1.31431 1.89842,0 3.58693,-0.41528 5.06554,-1.24585 1.47857,-0.83056 2.56469,-1.96689 3.25837,-3.40897 0.52935,-1.1135 0.79404,-2.75638 0.79406,-4.92863 z" />
      <path
         inkscape:connector-curvature="0"
         id="path3852"
         d="m -543.12774,406.92374 0,-29.07893 4.43576,0 0,4.13457 c 2.13573,-3.19445 5.22069,-4.79169 9.25488,-4.79172 1.75238,3e-5 3.36331,0.31491 4.8328,0.94465 1.46944,0.6298 2.56925,1.4558 3.29944,2.47801 0.73014,1.02226 1.24126,2.23616 1.53335,3.64171 0.18252,0.91273 0.27379,2.50997 0.27382,4.79173 l 0,17.87998 -4.92864,0 0,-17.68832 c -2e-5,-2.00794 -0.19169,-3.50934 -0.575,-4.50422 -0.38336,-0.99483 -1.06333,-1.78888 -2.03991,-2.38217 -0.97662,-0.59324 -2.12207,-0.88987 -3.43635,-0.88989 -2.09925,2e-5 -3.91097,0.6663 -5.43519,1.99883 -1.52423,1.33258 -2.28634,3.86078 -2.28633,7.58462 l 0,15.88115 z" />
      <path
         inkscape:connector-curvature="0"
         id="path3854"
         d="m -513.88453,398.24387 4.87387,-0.76668 c 0.27381,1.95321 1.03592,3.45005 2.28634,4.49053 1.2504,1.0405 2.99824,1.56074 5.24351,1.56074 2.26351,0 3.94289,-0.46092 5.03816,-1.38276 1.09523,-0.92183 1.64286,-2.00339 1.64288,-3.24468 -2e-5,-1.1135 -0.48376,-1.9897 -1.45121,-2.6286 -0.67542,-0.43809 -2.35481,-0.99485 -5.03816,-1.67026 -3.61434,-0.9127 -6.11972,-1.70219 -7.51616,-2.36848 -1.39645,-0.66627 -2.45519,-1.5881 -3.17623,-2.76551 -0.72104,-1.17738 -1.08156,-2.47799 -1.08156,-3.90184 0,-1.29602 0.29663,-2.49623 0.88989,-3.60064 0.59326,-1.10435 1.40101,-2.02162 2.42325,-2.75182 0.76666,-0.56585 1.81172,-1.04502 3.13515,-1.43751 1.32342,-0.39244 2.74268,-0.58867 4.25779,-0.5887 2.28176,3e-5 4.28516,0.3286 6.0102,0.98572 1.725,0.65718 2.99822,1.54707 3.81969,2.66968 0.82141,1.12266 1.38729,2.62406 1.69764,4.50422 l -4.81911,0.65715 c -0.21907,-1.49682 -0.8534,-2.66509 -1.903,-3.5048 -1.04963,-0.83967 -2.53279,-1.25952 -4.44946,-1.25954 -2.26353,2e-5 -3.87903,0.37423 -4.84649,1.12263 -0.96748,0.74845 -1.45121,1.62465 -1.45121,2.6286 0,0.63892 0.20079,1.21393 0.60239,1.72503 0.40159,0.52939 1.03135,0.96749 1.88931,1.3143 0.49285,0.18256 1.94406,0.6024 4.35363,1.25954 3.48653,0.93098 5.9189,1.69309 7.29711,2.28633 1.37817,0.59328 2.45973,1.45579 3.24468,2.58754 0.78491,1.13177 1.17737,2.53734 1.1774,4.21671 -3e-5,1.64289 -0.4792,3.18993 -1.43752,4.64113 -0.95837,1.45121 -2.34112,2.57385 -4.14827,3.3679 -1.80718,0.79406 -3.85165,1.19109 -6.1334,1.19109 -3.77863,0 -6.65823,-0.78493 -8.6388,-2.35479 -1.98058,-1.56986 -3.24469,-3.89727 -3.79231,-6.98223 z" />
      <path
         inkscape:connector-curvature="0"
         id="path3856"
         d="m -473.11379,402.51535 0.71192,4.35362 c -1.38733,0.29207 -2.62862,0.4381 -3.72386,0.4381 -1.78892,0 -3.17624,-0.28294 -4.16195,-0.84882 -0.98574,-0.56587 -1.67939,-1.30973 -2.08098,-2.23157 -0.4016,-0.92183 -0.60239,-2.86134 -0.60239,-5.81852 l 0,-16.72997 -3.61433,0 0,-3.83338 3.61433,0 0,-7.20128 4.90125,-2.95718 0,10.15846 4.95601,0 0,3.83338 -4.95601,0 0,17.00378 c -1e-5,1.40558 0.0867,2.30916 0.26012,2.71075 0.17341,0.40159 0.45635,0.72104 0.84882,0.95834 0.39246,0.23731 0.95377,0.35596 1.68395,0.35596 0.54762,0 1.26866,-0.0639 2.16312,-0.19167 z" />
      <path
         inkscape:connector-curvature="0"
         id="path3858"
         d="m -448.41587,397.55934 5.09292,0.62977 c -0.80321,2.97543 -2.29093,5.28459 -4.46315,6.92746 -2.17227,1.64288 -4.9469,2.46432 -8.32391,2.46432 -4.25324,0 -7.6257,-1.30974 -10.11739,-3.92922 -2.4917,-2.61947 -3.73754,-6.29312 -3.73754,-11.02097 0,-4.8921 1.25953,-8.68897 3.77861,-11.39061 2.51908,-2.70159 5.78657,-4.0524 9.80251,-4.05243 3.88812,3e-5 7.06435,1.32346 9.52868,3.97028 2.46429,2.64689 3.69645,6.37074 3.69648,11.17157 -3e-5,0.29208 -0.009,0.73018 -0.0274,1.3143 l -21.68598,0 c 0.18253,3.1945 1.08611,5.64055 2.71074,7.33819 1.62462,1.69764 3.65083,2.54646 6.07865,2.54646 1.80715,0 3.34963,-0.47461 4.62744,-1.42383 1.27777,-0.94921 2.29088,-2.46431 3.03932,-4.54529 z m -16.18234,-7.96796 16.2371,0 c -0.21907,-2.44604 -0.83971,-4.28059 -1.86192,-5.50364 -1.56989,-1.89841 -3.60523,-2.84763 -6.10603,-2.84765 -2.26353,2e-5 -4.16653,0.75757 -5.709,2.27265 -1.54249,1.51512 -2.39587,3.54133 -2.56015,6.07864 z" />
      <path
         inkscape:connector-curvature="0"
         id="path3860"
         d="m -437.16215,406.92374 0,-29.07893 4.43577,0 0,4.40839 c 1.13175,-2.0627 2.1768,-3.42264 3.13515,-4.07982 0.95834,-0.65712 2.01252,-0.98569 3.16254,-0.98572 1.66112,3e-5 3.34963,0.5294 5.06554,1.58811 l -1.69764,4.57268 c -1.20479,-0.71189 -2.40957,-1.06785 -3.61433,-1.06787 -1.07701,2e-5 -2.04448,0.32403 -2.90242,0.97203 -0.85795,0.64805 -1.46947,1.54707 -1.83454,2.69706 -0.54764,1.75242 -0.82145,3.66911 -0.82144,5.75007 l 0,15.224 z" />
      <path
         inkscape:connector-curvature="0"
         id="path3862"
         d="m -416.98215,406.92374 0,-5.61317 5.61316,0 0,5.61317 z" />
      <path
         inkscape:connector-curvature="0"
         id="path3864"
         d="m -398.28072,406.92374 -4.57268,0 0,-40.14097 4.92863,0 0,14.32041 c 2.08097,-2.61032 4.73695,-3.91549 7.96796,-3.91552 1.78889,3e-5 3.48196,0.36055 5.07923,1.08156 1.59722,0.72107 2.91152,1.73417 3.9429,3.03932 1.03134,1.3052 1.83908,2.87962 2.42325,4.72327 0.5841,1.8437 0.87617,3.81515 0.8762,5.91436 -3e-5,4.98341 -1.23219,8.83504 -3.69648,11.55491 -2.46434,2.71987 -5.42151,4.07981 -8.87153,4.07981 -3.4318,0 -6.1243,-1.43296 -8.07748,-4.29886 z m -0.0548,-14.75852 c 0,3.48656 0.4746,6.00564 1.42383,7.55724 1.5516,2.53734 3.65083,3.806 6.2977,3.806 2.15397,0 4.0159,-0.93553 5.58578,-2.80659 1.56984,-1.87104 2.35477,-4.65937 2.35479,-8.36498 -2e-5,-3.79685 -0.75301,-6.59887 -2.25896,-8.40605 -1.50599,-1.80714 -3.32684,-2.71073 -5.46256,-2.71075 -2.15401,2e-5 -4.01594,0.93555 -5.58579,2.80658 -1.56987,1.87108 -2.35479,4.57726 -2.35479,8.11855 z" />
      <path
         inkscape:connector-curvature="0"
         id="path3866"
         d="m -371.83041,418.12268 -0.54762,-4.62743 c 1.07699,0.29206 2.01708,0.43809 2.82027,0.4381 1.09524,-1e-5 1.97144,-0.18255 2.6286,-0.54763 0.65715,-0.36509 1.19564,-0.87621 1.6155,-1.53335 0.31031,-0.49287 0.8123,-1.7159 1.50597,-3.66909 0.0913,-0.27382 0.23729,-0.67541 0.4381,-1.20478 l -11.03466,-29.13369 5.31197,0 6.05127,16.83949 c 0.78491,2.13575 1.4877,4.38101 2.10836,6.7358 0.56586,-2.26351 1.24126,-4.47227 2.02621,-6.62627 l 6.21555,-16.94902 4.92863,0 -11.06204,29.57179 c -1.18653,3.19448 -2.10837,5.39411 -2.76551,6.59889 -0.87621,1.62461 -1.88019,2.8157 -3.01194,3.57326 -1.13177,0.75754 -2.48258,1.13631 -4.05243,1.13632 -0.94922,-1e-5 -2.00796,-0.20081 -3.17623,-0.60239 z" />
    </g>
  </g>
</svg>
