<?xml version="1.0" encoding="UTF-8" standalone="no"?>
<!-- Created with Inkscape (http://www.inkscape.org/) -->

<svg
   xmlns:dc="http://purl.org/dc/elements/1.1/"
   xmlns:cc="http://creativecommons.org/ns#"
   xmlns:rdf="http://www.w3.org/1999/02/22-rdf-syntax-ns#"
   xmlns:svg="http://www.w3.org/2000/svg"
   xmlns="http://www.w3.org/2000/svg"
   xmlns:sodipodi="http://sodipodi.sourceforge.net/DTD/sodipodi-0.dtd"
   xmlns:inkscape="http://www.inkscape.org/namespaces/inkscape"
   width="638.30682"
   height="887.05884"
   id="svg2"
   version="1.1"
   inkscape:version="0.48.4 r9939"
   sodipodi:docname="f_banner_2_curves2.svg"
   inkscape:export-filename="/home/svet/Dropbox/falanster/design/logo/banners/f_banner_2.png"
   inkscape:export-xdpi="300"
   inkscape:export-ydpi="300">
  <defs
     id="defs4" />
  <sodipodi:namedview
     id="base"
     pagecolor="#ffffff"
     bordercolor="#666666"
     borderopacity="1.0"
     inkscape:pageopacity="0.0"
     inkscape:pageshadow="2"
     inkscape:zoom="0.35"
     inkscape:cx="319.15342"
     inkscape:cy="443.52941"
     inkscape:document-units="px"
     inkscape:current-layer="layer1"
     showgrid="false"
     inkscape:window-width="1301"
     inkscape:window-height="744"
     inkscape:window-x="65"
     inkscape:window-y="24"
     inkscape:window-maximized="1"
     fit-margin-top="0"
     fit-margin-left="0"
     fit-margin-right="0"
     fit-margin-bottom="0" />
  <metadata
     id="metadata7">
    <rdf:RDF>
      <cc:Work
         rdf:about="">
        <dc:format>image/svg+xml</dc:format>
        <dc:type
           rdf:resource="http://purl.org/dc/dcmitype/StillImage" />
        <dc:title></dc:title>
      </cc:Work>
    </rdf:RDF>
  </metadata>
  <g
     inkscape:label="Layer 1"
     inkscape:groupmode="layer"
     id="layer1"
     transform="translate(-55.846581,-88.832774)">
    <path
       inkscape:connector-curvature="0"
       id="rect3117"
       d="m 55.846581,88.832774 638.306839,0 0,887.058816 -638.306839,0 z"
       style="fill:none;stroke:none" />
    <g
       id="g3072">
      <path
         inkscape:connector-curvature="0"
         id="path3567"
         style="font-size:158.77285767px;font-style:normal;font-variant:normal;font-weight:600;font-stretch:normal;line-height:89.99999762%;letter-spacing:12px;word-spacing:0px;fill:#ff5555;fill-opacity:1;stroke:none;font-family:a_AlternaBrk;-inkscape-font-specification:a_AlternaBrk Semi-Bold"
         d="m 223.62181,208.09696 -2.86541,2.34805 0,58.68529 15.91101,0 16.69104,-33.11942 -24.77788,-27.38859 z m -37.55285,-57.89729 -5.22142,-0.26266 43.29961,3.91606 0,21.38714 12.77496,-3.91607 44.07964,17.21637 8.86686,49.81046 -14.08033,53.98919 -36.51811,10.69754 -21.64186,1.30536 6.51884,27.90595 -45.38499,0 0,-27.90595 -16.69104,-1.04269 -34.95011,-17.21637 -17.21636,-48.2504 14.35095,-45.38498 42.24895,-19.55646 12.52026,0 z m 0,58.42262 0,0.78003 -17.47903,-2.08539 -23.20986,33.90741 21.9045,32.60205 17.47904,-7.04414 -2.34805,-24.77788 z" />
      <path
         inkscape:connector-curvature="0"
         id="path3569"
         style="font-size:158.77285767px;font-style:normal;font-variant:normal;font-weight:600;font-stretch:normal;line-height:89.99999762%;letter-spacing:12px;word-spacing:0px;fill:#ff5555;fill-opacity:1;stroke:none;font-family:a_AlternaBrk;-inkscape-font-specification:a_AlternaBrk Semi-Bold"
         d="m 371.4899,269.1303 -0.26267,-2.61071 28.43129,0 3.12806,-47.20771 -17.21637,-43.81697 -9.39217,45.38499 z m 0.51737,64.42406 0.52532,-3.91605 -37.29815,2.34805 -4.69611,-36.51017 7.82419,-45.38498 3.91605,-43.29164 12.25761,-28.95661 14.343,-30.51667 38.60351,0 16.69104,33.64475 8.60419,26.08323 3.91607,46.16502 2.86542,43.29959 0,34.16212 -33.11941,6.00144 0,-35.73012 -30.77933,-6.26412 z" />
      <path
         inkscape:connector-curvature="0"
         id="path3571"
         style="font-size:158.77285767px;font-style:normal;font-variant:normal;font-weight:600;font-stretch:normal;line-height:89.99999762%;letter-spacing:12px;word-spacing:0px;fill:#ff2a2a;fill-opacity:1;stroke:none;font-family:a_AlternaBrk;-inkscape-font-specification:a_AlternaBrk Semi-Bold"
         d="m 182.67823,569.59449 0,-1.83068 0,-33.38208 2.86541,-27.64329 -4.6961,-31.042 5.47612,-27.64329 -2.86541,-33.39004 -17.21636,27.38858 -11.99495,33.90742 0,95.72077 -41.99425,-6.78148 -2.86541,-20.86977 0,-62.85607 13.56296,-44.85964 21.90451,-25.29526 25.82057,-23.21781 55.29453,-6.25616 -3.6534,34.16211 0,29.21927 -3.64543,31.2967 6.78148,28.68599 -5.22142,29.73663 2.61071,32.85675 z" />
      <path
         inkscape:connector-curvature="0"
         id="path3573"
         style="font-size:158.77285767px;font-style:normal;font-variant:normal;font-weight:600;font-stretch:normal;line-height:89.99999762%;letter-spacing:12px;word-spacing:0px;fill:#ff2a2a;fill-opacity:1;stroke:none;font-family:a_AlternaBrk;-inkscape-font-specification:a_AlternaBrk Semi-Bold"
         d="m 305.7764,503.86506 -0.26267,-2.61072 28.43129,0 3.12806,-47.20769 -17.21636,-43.81698 -9.3922,45.38499 z m 0.51735,64.42407 0.52534,-3.91607 -37.29815,2.34806 -4.6961,-36.51016 7.82417,-45.385 3.91607,-43.29164 12.25761,-28.9566 14.343,-30.51666 38.6035,0 16.69103,33.64474 8.60421,26.08324 3.91607,46.16501 2.86541,43.2996 0,34.16212 -33.11941,6.00144 0,-35.73014 -30.77933,-6.26411 z" />
      <path
         inkscape:connector-curvature="0"
         id="path3575"
         style="font-size:158.77285767px;font-style:normal;font-variant:normal;font-weight:600;font-stretch:normal;line-height:89.99999762%;letter-spacing:12px;word-spacing:0px;fill:#ff2a2a;fill-opacity:1;stroke:none;font-family:a_AlternaBrk;-inkscape-font-specification:a_AlternaBrk Semi-Bold"
         d="m 420.95488,569.59449 0.78798,-4.95876 1.56006,-25.04054 -3.12808,-35.2048 -2.08538,-29.99931 4.69609,-29.99133 -1.83067,-29.21132 0,-33.90739 41.99425,2.34804 -4.69611,32.60206 5.47613,35.46745 27.65125,-3.39073 0,-66.2468 40.94359,0 0,37.03549 -2.61071,23.73518 -2.86541,37.03548 0,55.03188 6.51881,36.51812 -39.90089,0 0,-34.68743 -2.34804,-24.26052 0,-29.2113 -34.17009,0 6.78149,26.87121 -5.21346,27.11798 2.61071,30.25399 z" />
      <path
         inkscape:connector-curvature="0"
         id="path3577"
         style="font-size:158.77285767px;font-style:normal;font-variant:normal;font-weight:600;font-stretch:normal;line-height:89.99999762%;letter-spacing:12px;word-spacing:0px;fill:#d40000;fill-opacity:1;stroke:none;font-family:a_AlternaBrk;-inkscape-font-specification:a_AlternaBrk Semi-Bold"
         d="m 222.84179,693.47751 0,-1.82273 -39.12087,-3.39073 1.82272,-20.34445 -20.08179,-17.9964 -10.17222,18.25905 -2.86541,25.55791 0,57.89731 17.47107,16.9537 15.91101,-11.99494 -3.12807,-38.07819 37.29815,6.51882 0,17.47903 -10.96022,46.68237 -38.07819,19.30176 -43.29164,-13.82563 -11.47757,-54.50654 -3.6534,-28.69396 0,-33.64474 8.86686,-47.20769 49.55575,-15.12303 37.81552,12.51231 15.13099,50.34374 z" />
      <path
         inkscape:connector-curvature="0"
         id="path3579"
         style="font-size:158.77285767px;font-style:normal;font-variant:normal;font-weight:600;font-stretch:normal;line-height:89.99999762%;letter-spacing:12px;word-spacing:0px;fill:#d40000;fill-opacity:1;stroke:none;font-family:a_AlternaBrk;-inkscape-font-specification:a_AlternaBrk Semi-Bold"
         d="m 286.29953,654.6193 -0.26267,-4.6961 -26.34589,3.9081 -2.08538,-37.03548 34.43273,0 31.81406,6.52678 28.43128,-6.78148 -2.86541,39.90089 -27.12593,-4.43342 0,28.43127 5.99349,35.99281 0,52.94648 -3.12808,33.64475 -40.16356,0 -2.87336,-30.51667 6.78148,-31.82201 -5.21347,-30.51668 2.61071,-27.64329 z" />
      <path
         inkscape:connector-curvature="0"
         id="path3581"
         style="font-size:158.77285767px;font-style:normal;font-variant:normal;font-weight:600;font-stretch:normal;line-height:89.99999762%;letter-spacing:12px;word-spacing:0px;fill:#d40000;fill-opacity:1;stroke:none;font-family:a_AlternaBrk;-inkscape-font-specification:a_AlternaBrk Semi-Bold"
         d="m 391.4013,734.69172 0.51736,3.64543 38.86617,-2.08537 -2.61071,14.86832 17.73374,18.51375 10.95225,-16.42837 0,-29.21131 -31.2967,-5.47613 0,-28.43128 38.34085,-3.39074 -7.04415,-18.51377 -15.90306,-14.08828 -13.0456,13.04559 3.12809,5.47613 -42.24896,0 12.25761,-40.68888 42.77427,-15.38569 39.64621,12.25761 19.81911,46.68237 -3.6534,36.25546 0,27.90595 -14.08033,51.64115 -41.20625,11.21492 -44.07963,-13.30032 -14.0883,-45.12231 z" />
      <path
         inkscape:connector-curvature="0"
         id="path3583"
         style="font-size:158.77285767px;font-style:normal;font-variant:normal;font-weight:600;font-stretch:normal;line-height:89.99999762%;letter-spacing:12px;word-spacing:0px;fill:#d40000;fill-opacity:1;stroke:none;font-family:a_AlternaBrk;-inkscape-font-specification:a_AlternaBrk Semi-Bold"
         d="m 585.49808,720.60344 -0.51737,-1.30536 14.86035,0 15.13099,-33.38209 -16.69105,-33.9074 -15.38569,-0.78004 2.60277,34.68744 z m -35.20481,78.76706 -3.13604,-0.26267 1.83069,-28.16862 -4.69611,-31.2967 5.47613,-28.16862 -2.86542,-33.90739 0,-60.77068 52.93854,0 34.6954,12.78293 16.42838,14.343 3.39073,45.12232 -12.25761,45.64765 -38.07816,15.90304 -15.91101,4.43344 0,50.59844 z" />
    </g>
    <g
       id="text3113"
       style="font-size:61.06625366px;font-style:normal;font-weight:normal;line-height:125%;letter-spacing:0px;word-spacing:0px;fill:#333333;fill-opacity:1;stroke:none;font-family:Sans"
       transform="matrix(1.6427015,0,0,1.6427015,1679.7743,153.00721)">
      <path
         inkscape:connector-curvature="0"
         id="path3586"
         d="m -944.60215,461.30228 0,-27.49174 -4.74099,0 0,-4.17446 4.74099,0 0,-3.36937 c -10e-6,-2.12695 0.18884,-3.70727 0.56653,-4.74099 0.51683,-1.39144 1.42626,-2.51953 2.7283,-3.38428 1.30202,-0.86467 3.12586,-1.29702 5.47152,-1.29707 1.51073,5e-5 3.18051,0.17895 5.00934,0.53672 l -0.80508,4.68135 c -1.1132,-0.19875 -2.16675,-0.29814 -3.16065,-0.29818 -1.63004,4e-5 -2.78298,0.34791 -3.45883,1.04362 -0.67588,0.69578 -1.01381,1.9978 -1.0138,3.90609 l 0,2.92211 6.17223,0 0,4.17446 -6.17223,0 0,27.49174 z" />
      <path
         inkscape:connector-curvature="0"
         id="path3588"
         d="m -908.28443,457.39618 c -1.98785,1.68966 -3.90114,2.88236 -5.73987,3.5781 -1.83876,0.69575 -3.81168,1.04362 -5.91877,1.04362 -3.47872,0 -6.15236,-0.8498 -8.02091,-2.5494 -1.86857,-1.69959 -2.80285,-3.8713 -2.80285,-6.51513 0,-1.5505 0.35284,-2.96683 1.05852,-4.24899 0.70568,-1.28214 1.63002,-2.31084 2.77303,-3.08611 1.143,-0.77524 2.43012,-1.36165 3.86137,-1.75923 1.05354,-0.27828 2.6438,-0.54664 4.7708,-0.80508 4.33346,-0.51682 7.52393,-1.13304 9.57142,-1.84868 0.0198,-0.73548 0.0298,-1.20262 0.0298,-1.40143 -3e-5,-2.18659 -0.50692,-3.72716 -1.5207,-4.62171 -1.37162,-1.21255 -3.40915,-1.81884 -6.11259,-1.81887 -2.52456,3e-5 -4.38815,0.44232 -5.59078,1.32688 -1.20265,0.88461 -2.0922,2.45003 -2.66866,4.69626 l -5.24789,-0.71562 c 0.47708,-2.24623 1.26227,-4.06012 2.35559,-5.4417 1.0933,-1.38151 2.67363,-2.445 4.74098,-3.19047 2.06734,-0.7454 4.46267,-1.11812 7.18602,-1.11816 2.70343,4e-5 4.89999,0.31809 6.58967,0.95416 1.68963,0.63614 2.93203,1.43624 3.72719,2.40031 0.7951,0.96413 1.3517,2.18168 1.66978,3.65265 0.17887,0.91443 0.26833,2.56433 0.26836,4.9497 l 0,7.15621 c -3e-5,4.98947 0.11427,8.14515 0.3429,9.46705 0.22857,1.32192 0.6808,2.58916 1.35669,3.80174 l -5.60569,0 c -0.55662,-1.11319 -0.91443,-2.41522 -1.07343,-3.9061 z m -0.44726,-11.98663 c -1.9481,0.79514 -4.87021,1.47101 -8.76635,2.02759 -2.20651,0.31806 -3.76695,0.67587 -4.68135,1.07343 -0.91441,0.39758 -1.62009,0.97902 -2.11704,1.74432 -0.49697,0.76533 -0.74544,1.61512 -0.74544,2.5494 0,1.43124 0.54168,2.62394 1.62506,3.5781 1.08336,0.95416 2.66865,1.43124 4.75589,1.43124 2.06733,0 3.90607,-0.45223 5.51624,-1.3567 1.61012,-0.90446 2.79288,-2.14188 3.54828,-3.71228 0.57645,-1.21257 0.86468,-3.00162 0.86471,-5.36715 z" />
      <path
         inkscape:connector-curvature="0"
         id="path3590"
         d="m -895.07527,461.30228 0,-43.71247 5.36715,0 0,43.71247 z" />
      <path
         inkscape:connector-curvature="0"
         id="path3592"
         d="m -860.69569,457.39618 c -1.98785,1.68966 -3.90114,2.88236 -5.73987,3.5781 -1.83876,0.69575 -3.81168,1.04362 -5.91877,1.04362 -3.47872,0 -6.15235,-0.8498 -8.02091,-2.5494 -1.86857,-1.69959 -2.80285,-3.8713 -2.80285,-6.51513 0,-1.5505 0.35284,-2.96683 1.05852,-4.24899 0.70568,-1.28214 1.63002,-2.31084 2.77303,-3.08611 1.143,-0.77524 2.43012,-1.36165 3.86137,-1.75923 1.05354,-0.27828 2.64381,-0.54664 4.7708,-0.80508 4.33346,-0.51682 7.52393,-1.13304 9.57142,-1.84868 0.0199,-0.73548 0.0298,-1.20262 0.0298,-1.40143 -3e-5,-2.18659 -0.50692,-3.72716 -1.52069,-4.62171 -1.37163,-1.21255 -3.40916,-1.81884 -6.11259,-1.81887 -2.52457,3e-5 -4.38816,0.44232 -5.59079,1.32688 -1.20265,0.88461 -2.0922,2.45003 -2.66866,4.69626 l -5.24788,-0.71562 c 0.47707,-2.24623 1.26227,-4.06012 2.35558,-5.4417 1.0933,-1.38151 2.67363,-2.445 4.74098,-3.19047 2.06734,-0.7454 4.46267,-1.11812 7.18602,-1.11816 2.70344,4e-5 4.89999,0.31809 6.58967,0.95416 1.68963,0.63614 2.93203,1.43624 3.72719,2.40031 0.7951,0.96413 1.3517,2.18168 1.66978,3.65265 0.17887,0.91443 0.26833,2.56433 0.26836,4.9497 l 0,7.15621 c -3e-5,4.98947 0.11427,8.14515 0.3429,9.46705 0.22857,1.32192 0.6808,2.58916 1.35669,3.80174 l -5.60569,0 c -0.55662,-1.11319 -0.91443,-2.41522 -1.07343,-3.9061 z m -0.44726,-11.98663 c -1.9481,0.79514 -4.87021,1.47101 -8.76635,2.02759 -2.20651,0.31806 -3.76695,0.67587 -4.68135,1.07343 -0.91441,0.39758 -1.62009,0.97902 -2.11704,1.74432 -0.49696,0.76533 -0.74544,1.61512 -0.74544,2.5494 0,1.43124 0.54168,2.62394 1.62506,3.5781 1.08336,0.95416 2.66865,1.43124 4.75589,1.43124 2.06733,0 3.90608,-0.45223 5.51624,-1.3567 1.61012,-0.90446 2.79288,-2.14188 3.54828,-3.71228 0.57645,-1.21257 0.86469,-3.00162 0.86471,-5.36715 z" />
      <path
         inkscape:connector-curvature="0"
         id="path3594"
         d="m -847.36726,461.30228 0,-31.6662 4.83044,0 0,4.50245 c 2.32575,-3.47868 5.68519,-5.21803 10.07831,-5.21807 1.9083,4e-5 3.66256,0.34294 5.26279,1.02871 1.60018,0.68583 2.79785,1.58533 3.59301,2.69848 0.79511,1.11322 1.3517,2.43513 1.66978,3.96573 0.19876,0.99394 0.29815,2.73329 0.29818,5.21806 l 0,19.47084 -5.36715,0 0,-19.26211 c -3e-5,-2.1866 -0.20875,-3.82159 -0.62617,-4.90498 -0.41747,-1.08335 -1.15794,-1.94805 -2.22141,-2.59413 -1.06351,-0.64601 -2.31087,-0.96904 -3.74209,-0.96906 -2.28603,2e-5 -4.25895,0.72558 -5.91878,2.17667 -1.65985,1.45115 -2.48977,4.20429 -2.48976,8.25945 l 0,17.29416 z" />
      <path
         inkscape:connector-curvature="0"
         id="path3596"
         d="m -815.52216,451.85013 5.30751,-0.83489 c 0.29817,2.12699 1.12809,3.75701 2.48977,4.89007 1.36165,1.13307 3.265,1.6996 5.71005,1.6996 2.46489,0 4.2937,-0.50193 5.48642,-1.50579 1.19268,-1.00385 1.78903,-2.18164 1.78905,-3.53337 -2e-5,-1.21257 -0.5268,-2.16673 -1.58033,-2.86248 -0.73552,-0.47707 -2.56432,-1.08336 -5.48642,-1.81887 -3.93592,-0.9939 -6.66422,-1.85364 -8.1849,-2.57922 -1.5207,-0.72554 -2.67365,-1.72939 -3.45884,-3.01156 -0.78519,-1.28214 -1.17779,-2.69847 -1.17779,-4.249 0,-1.41134 0.32302,-2.71834 0.96907,-3.921 0.64604,-1.20261 1.52566,-2.2015 2.63885,-2.99666 0.83488,-0.6162 1.97292,-1.138 3.41411,-1.56542 1.44116,-0.42735 2.9867,-0.64104 4.63662,-0.64108 2.48477,4e-5 4.66642,0.35785 6.54494,1.07343 1.87848,0.71566 3.26499,1.68472 4.15954,2.90721 0.8945,1.22255 1.51073,2.85754 1.84869,4.90498 l -5.24788,0.71562 c -0.23856,-1.63 -0.92934,-2.90221 -2.07232,-3.81664 -1.14302,-0.91438 -2.75814,-1.37158 -4.84534,-1.3716 -2.46493,2e-5 -4.22416,0.40753 -5.2777,1.22251 -1.05356,0.81504 -1.58034,1.7692 -1.58033,2.86248 -10e-6,0.69577 0.21865,1.32194 0.65598,1.87851 0.43732,0.57649 1.12312,1.05357 2.05741,1.43124 0.53671,0.1988 2.11703,0.656 4.74099,1.3716 3.79674,1.01382 6.44552,1.84374 7.94636,2.48976 1.50079,0.64607 2.67858,1.58532 3.53338,2.81776 0.85474,1.23247 1.28212,2.7631 1.28215,4.59189 -3e-5,1.78906 -0.52184,3.47375 -1.56542,5.05407 -1.04364,1.58033 -2.54942,2.80285 -4.51735,3.66756 -1.96798,0.8647 -4.19435,1.29706 -6.67912,1.29706 -4.11483,0 -7.25064,-0.85477 -9.40743,-2.56431 -2.1568,-1.70953 -3.53337,-4.24402 -4.12972,-7.60346 z" />
      <path
         inkscape:connector-curvature="0"
         id="path3598"
         d="m -771.12389,456.50166 0.77525,4.74098 c -1.51077,0.31805 -2.86249,0.47708 -4.05518,0.47708 -1.94809,0 -3.45884,-0.30811 -4.53226,-0.92434 -1.07344,-0.61623 -1.82881,-1.42627 -2.26613,-2.43013 -0.43733,-1.00385 -0.65599,-3.11592 -0.65599,-6.33622 l 0,-18.21849 -3.93591,0 0,-4.17446 3.93591,0 0,-7.842 5.33734,-3.22029 0,11.06229 5.39697,0 0,4.17446 -5.39697,0 0,18.51667 c -10e-6,1.53064 0.0944,2.51461 0.28326,2.95193 0.18884,0.43733 0.49695,0.7852 0.92435,1.04361 0.42737,0.25843 1.03863,0.38764 1.83377,0.38763 0.59634,1e-5 1.38153,-0.0696 2.35559,-0.20872 z" />
      <path
         inkscape:connector-curvature="0"
         id="path3600"
         d="m -744.22851,451.10469 5.54606,0.6858 c -0.87468,3.24018 -2.49476,5.75478 -4.86025,7.54383 -2.36555,1.78905 -5.38706,2.68358 -9.06453,2.68358 -4.63166,0 -8.30418,-1.42627 -11.01757,-4.27882 -2.71339,-2.85253 -4.07009,-6.85304 -4.07009,-12.00154 0,-5.32738 1.37161,-9.46207 4.11482,-12.40408 2.7432,-2.94197 6.30142,-4.41296 10.67467,-4.413 4.23406,4e-5 7.69289,1.44121 10.37649,4.32354 2.68355,2.88239 4.02533,6.93756 4.02536,12.16555 -3e-5,0.31806 -0.01,0.79514 -0.0298,1.43124 l -23.61547,0 c 0.19878,3.47872 1.18275,6.14241 2.95193,7.99109 1.76916,1.84869 3.97566,2.77303 6.61949,2.77303 1.96794,0 3.64765,-0.51684 5.03916,-1.55051 1.39146,-1.03367 2.49471,-2.68357 3.30974,-4.94971 z m -17.62214,-8.6769 17.68178,0 c -0.23857,-2.66367 -0.91443,-4.66144 -2.02759,-5.99331 -1.70956,-2.06732 -3.92599,-3.101 -6.64931,-3.10102 -2.46493,2e-5 -4.53724,0.82497 -6.21695,2.47485 -1.67973,1.64992 -2.60904,3.85642 -2.78793,6.61948 z" />
      <path
         inkscape:connector-curvature="0"
         id="path3602"
         d="m -731.97351,461.30228 0,-31.6662 4.83043,0 0,4.80062 c 1.23245,-2.24622 2.37049,-3.72715 3.41411,-4.44281 1.0436,-0.71558 2.19157,-1.07339 3.44392,-1.07343 1.80891,4e-5 3.64766,0.57651 5.51624,1.72942 l -1.84869,4.97952 c -1.31198,-0.77523 -2.62395,-1.16285 -3.93591,-1.16288 -1.17283,3e-5 -2.22638,0.35287 -3.16065,1.05852 -0.93429,0.70571 -1.60022,1.68472 -1.99777,2.93703 -0.59636,1.90834 -0.89454,3.99556 -0.89453,6.26167 l 0,16.57854 z" />
      <path
         inkscape:connector-curvature="0"
         id="path3604"
         d="m -709.99801,461.30228 0,-6.11259 6.11259,0 0,6.11259 z" />
      <path
         inkscape:connector-curvature="0"
         id="path3606"
         d="m -689.63264,461.30228 -4.97953,0 0,-43.71247 5.36716,0 0,15.59456 c 2.26611,-2.84257 5.15841,-4.26387 8.67689,-4.26391 1.94806,4e-5 3.79177,0.39263 5.53115,1.1778 1.73933,0.78522 3.17057,1.88847 4.29372,3.30974 1.1231,1.42133 2.00271,3.13583 2.63885,5.14352 0.63607,2.00773 0.95413,4.15459 0.95416,6.44058 -3e-5,5.4268 -1.34182,9.62112 -4.02537,12.58299 -2.6836,2.96187 -5.90388,4.44281 -9.66087,4.44281 -3.73714,0 -6.66919,-1.56045 -8.79616,-4.68135 z m -0.0596,-16.07164 c -10e-6,3.79678 0.51683,6.53998 1.55051,8.22963 1.68965,2.7631 3.97566,4.14464 6.85803,4.14464 2.34562,0 4.37321,-1.01876 6.08277,-3.0563 1.70951,-2.03752 2.56428,-5.07393 2.56431,-9.10925 -3e-5,-4.13467 -0.82001,-7.18599 -2.45995,-9.15397 -1.63998,-1.96793 -3.62284,-2.95191 -5.94859,-2.95193 -2.34566,2e-5 -4.37325,1.01879 -6.08277,3.05629 -1.70955,2.03755 -2.56432,4.98451 -2.56431,8.84089 z" />
      <path
         inkscape:connector-curvature="0"
         id="path3608"
         d="m -660.82893,473.49764 -0.59635,-5.03916 c 1.17282,0.31804 2.19655,0.47707 3.0712,0.47708 1.1927,-1e-5 2.14686,-0.19879 2.86248,-0.59635 0.71561,-0.39758 1.30202,-0.95417 1.75924,-1.66978 0.33792,-0.53672 0.88457,-1.86857 1.63996,-3.99555 0.0994,-0.29817 0.25841,-0.7355 0.47708,-1.31197 l -12.01646,-31.72583 5.7846,0 6.58967,18.33777 c 0.85475,2.32578 1.62007,4.77081 2.29595,7.33511 0.61621,-2.46491 1.35171,-4.87018 2.20649,-7.21584 l 6.76858,-18.45704 5.36715,0 -12.04627,32.20291 c -1.29211,3.47871 -2.29597,5.87404 -3.01157,7.18602 -0.95418,1.76916 -2.04748,3.06622 -3.27993,3.89119 -1.23247,0.82493 -2.70346,1.23741 -4.41299,1.23742 -1.03368,-10e-6 -2.18662,-0.21867 -3.45883,-0.65598 z" />
    </g>
  </g>
</svg>
