<?xml version="1.0" encoding="UTF-8" standalone="no"?>
<!-- Created with Inkscape (http://www.inkscape.org/) -->

<svg
   xmlns:dc="http://purl.org/dc/elements/1.1/"
   xmlns:cc="http://creativecommons.org/ns#"
   xmlns:rdf="http://www.w3.org/1999/02/22-rdf-syntax-ns#"
   xmlns:svg="http://www.w3.org/2000/svg"
   xmlns="http://www.w3.org/2000/svg"
   xmlns:sodipodi="http://sodipodi.sourceforge.net/DTD/sodipodi-0.dtd"
   xmlns:inkscape="http://www.inkscape.org/namespaces/inkscape"
   width="438.40622"
   height="479.01578"
   id="svg2"
   version="1.1"
   inkscape:version="0.48.4 r9939"
   sodipodi:docname="f_banner_cyber_2016_curves.svg"
   inkscape:export-filename="/home/svet/Dropbox/falanster/design/logo/banners/f_banner_cyber_2016.png"
   inkscape:export-xdpi="300.05911"
   inkscape:export-ydpi="300.05911">
  <defs
     id="defs4" />
  <sodipodi:namedview
     id="base"
     pagecolor="#ffffff"
     bordercolor="#666666"
     borderopacity="1.0"
     inkscape:pageopacity="0.0"
     inkscape:pageshadow="2"
     inkscape:zoom="1"
     inkscape:cx="212.59144"
     inkscape:cy="159.4531"
     inkscape:document-units="px"
     inkscape:current-layer="layer1"
     showgrid="false"
     inkscape:window-width="1301"
     inkscape:window-height="744"
     inkscape:window-x="65"
     inkscape:window-y="24"
     inkscape:window-maximized="1"
     showguides="true"
     inkscape:guide-bbox="true"
     fit-margin-top="0"
     fit-margin-left="0"
     fit-margin-right="0"
     fit-margin-bottom="0">
    <sodipodi:guide
       orientation="1,0"
       position="44.426405,600.19346"
       id="guide3933" />
    <sodipodi:guide
       orientation="1,0"
       position="393.43411,484.02592"
       id="guide3935" />
    <sodipodi:guide
       orientation="0,1"
       position="48.455755,-0.2841054"
       id="guide3074" />
  </sodipodi:namedview>
  <metadata
     id="metadata7">
    <rdf:RDF>
      <cc:Work
         rdf:about="">
        <dc:format>image/svg+xml</dc:format>
        <dc:type
           rdf:resource="http://purl.org/dc/dcmitype/StillImage" />
        <dc:title></dc:title>
      </cc:Work>
    </rdf:RDF>
  </metadata>
  <g
     inkscape:label="Layer 1"
     inkscape:groupmode="layer"
     id="layer1"
     transform="translate(-24.263968,-203.79343)">
    <rect
       style="fill:#55ff55;fill-opacity:1;stroke:none"
       id="rect3070"
       width="438.40622"
       height="479.29956"
       x="24.263968"
       y="203.79343" />
    <g
       id="g4328"
       transform="matrix(1.0020564,0,0,1.0020564,-0.85815107,-1.2176874)">
      <rect
         y="462.38464"
         x="114.66077"
         height="42.618687"
         width="258.91019"
         id="rect2991-1"
         style="opacity:0.65;fill:#000000;fill-opacity:1;stroke:#000000;stroke-width:0.98951966" />
      <rect
         y="332.35614"
         x="70.46962"
         height="129.02582"
         width="85.844559"
         id="rect3031"
         style="opacity:0.75;fill:#000000;fill-opacity:1;stroke:#000000;stroke-width:1.0229528" />
      <rect
         y="288.93463"
         x="331.53256"
         height="215.97469"
         width="42.106441"
         id="rect3011-3"
         style="opacity:0.55;fill:#000000;fill-opacity:1;stroke:#000000;stroke-width:1.04865432" />
      <rect
         y="332.34427"
         x="331.5502"
         height="129.03293"
         width="85.572678"
         id="rect3031-4"
         style="opacity:0.6;fill:#000000;fill-opacity:1;stroke:#000000;stroke-width:1.0213598" />
      <rect
         y="288.9324"
         x="114.63469"
         height="215.97917"
         width="41.746288"
         id="rect3011"
         style="opacity:0.4;fill:#000000;fill-opacity:1;stroke:#000000;stroke-width:1.04417074" />
      <rect
         y="288.90417"
         x="114.60651"
         height="42.438118"
         width="259.09427"
         id="rect2991"
         style="opacity:0.45;fill:#000000;fill-opacity:1;stroke:#000000;stroke-width:0.98777223" />
      <rect
         y="245.51338"
         x="201.65286"
         height="345.89609"
         width="85.179329"
         id="rect2989"
         style="opacity:0.8;fill:#000000;fill-opacity:1;stroke:#000000;stroke-width:1.44329691" />
    </g>
    <g
       style="font-size:91.88619995px;font-style:normal;font-variant:normal;font-weight:normal;font-stretch:normal;line-height:125%;letter-spacing:0px;word-spacing:0px;opacity:0.7;fill:#1a1a1a;fill-opacity:1;stroke:none;font-family:Opirus OPIK;-inkscape-font-specification:Opirus OPIK"
       id="text3939">
      <path
         d="m 68.690376,683.09896 0,-63.17176 5.742888,0 0,11.48577 5.742887,0 0,5.74289 -5.742887,0 0,45.9431 -5.742888,0 m 5.742888,-63.17176 0,-5.74289 11.485775,0 0,5.74289 -11.485775,0"
         style=""
         id="path2997" />
      <path
         d="m 114.63348,654.38452 0,-5.74289 5.74288,0 0,5.74289 -5.74288,0 m -17.228666,0 0,-11.48577 5.742886,0 0,5.74288 5.74289,0 0,5.74289 -11.485776,0 m 11.485776,-5.74289 0,-5.74288 -5.74289,0 0,-5.74289 5.74289,0 0,-5.74289 5.74289,0 0,17.22866 -5.74289,0 m -11.485776,-17.22866 0,-5.74289 11.485776,0 0,5.74289 -11.485776,0"
         style=""
         id="path2999" />
      <path
         d="m 126.11925,654.38452 0,-40.20021 5.74289,0 0,40.20021 -5.74289,0"
         style=""
         id="path3001" />
      <path
         d="m 160.57658,654.38452 0,-5.74289 5.74288,0 0,5.74289 -5.74288,0 m -17.22867,0 0,-11.48577 5.74289,0 0,5.74288 5.74289,0 0,5.74289 -11.48578,0 m 11.48578,-5.74289 0,-5.74288 -5.74289,0 0,-5.74289 5.74289,0 0,-5.74289 5.74289,0 0,17.22866 -5.74289,0 m -11.48578,-17.22866 0,-5.74289 11.48578,0 0,5.74289 -11.48578,0"
         style=""
         id="path3003" />
      <path
         d="m 195.03391,654.38452 0,-22.97155 5.74288,0 0,22.97155 -5.74288,0 m -22.97155,0 0,-28.71444 5.74288,0 0,5.74289 5.74289,0 0,5.74289 -5.74289,0 0,17.22866 -5.74288,0 m 11.48577,-22.97155 0,-5.74289 11.48578,0 0,5.74289 -11.48578,0"
         style=""
         id="path3005" />
      <path
         d="m 206.51968,654.38452 0,-5.74289 22.97155,0 0,5.74289 -22.97155,0 m 22.97155,-5.74289 0,-5.74288 5.74288,0 0,5.74288 -5.74288,0 m -17.22867,-5.74288 0,-5.74289 17.22867,0 0,5.74289 -17.22867,0 m -5.74288,-5.74289 0,-5.74289 5.74288,0 0,5.74289 -5.74288,0 m 5.74288,-5.74289 0,-5.74289 22.97155,0 0,5.74289 -22.97155,0"
         style=""
         id="path3007" />
      <path
         d="m 246.71988,654.38452 0,-5.74289 17.22867,0 0,5.74289 -17.22867,0 m 17.22867,-5.74289 0,-5.74288 5.74288,0 0,5.74288 -5.74288,0 m -22.97155,0 0,-34.45732 5.74288,0 0,17.22866 11.48578,0 0,5.74289 -11.48578,0 0,11.48577 -5.74288,0"
         style=""
         id="path3009" />
      <path
         d="m 281.17722,654.38452 0,-5.74289 22.97155,0 0,5.74289 -22.97155,0 m -5.74289,-5.74289 0,-17.22866 5.74289,0 0,5.74289 17.22866,0 0,5.74289 -17.22866,0 0,5.74288 -5.74289,0 m 22.97155,-11.48577 0,-5.74289 5.74289,0 0,5.74289 -5.74289,0 m -17.22866,-5.74289 0,-5.74289 17.22866,0 0,5.74289 -17.22866,0"
         style=""
         id="path3011" />
      <path
         d="m 332.8632,637.15586 0,-5.74289 5.74289,0 0,5.74289 -5.74289,0 m -22.97155,17.22866 0,-28.71444 5.74289,0 0,5.74289 5.74289,0 0,5.74289 -5.74289,0 0,17.22866 -5.74289,0 m 11.48578,-22.97155 0,-5.74289 11.48577,0 0,5.74289 -11.48577,0"
         style=""
         id="path3013" />
      <path
         d="m 344.34898,654.38452 0,-5.74289 5.74288,0 0,5.74289 -5.74288,0"
         style=""
         id="path3015" />
      <path
         d="m 367.32053,654.38452 0,-5.74289 11.48577,0 0,5.74289 -11.48577,0 m 11.48577,-5.74289 0,-17.22866 5.74289,0 0,17.22866 -5.74289,0 m -11.48577,-17.22866 0,-5.74289 11.48577,0 0,5.74289 -11.48577,0 m -11.48578,22.97155 0,-40.20021 5.74289,0 0,17.22866 5.74289,0 0,17.22866 -5.74289,0 0,5.74289 -5.74289,0"
         style=""
         id="path3017" />
      <path
         d="m 390.29206,648.64163 0,-22.97155 5.74289,0 0,22.97155 -5.74289,0 m 11.48578,34.45733 0,-17.22866 5.74288,0 0,11.48577 5.74289,0 0,-11.48577 -5.74289,0 0,-5.74289 5.74289,0 0,-5.74289 -17.22866,0 0,-5.74289 17.22866,0 0,-22.97155 5.74289,0 0,57.42888 -17.22866,0"
         style=""
         id="path3019" />
    </g>
  </g>
</svg>
